<?xml version="1.0" standalone="no"?>
<!DOCTYPE svg PUBLIC "-//W3C//DTD SVG 20010904//EN"
 "http://www.w3.org/TR/2001/REC-SVG-20010904/DTD/svg10.dtd">
<svg version="1.0" xmlns="http://www.w3.org/2000/svg"
 width="600.000000pt" height="600.000000pt" viewBox="0 0 600.000000 600.000000"
 preserveAspectRatio="xMidYMid meet">
<metadata>
Created by potrace 1.14, written by Peter Selinger 2001-2017
</metadata>
<g transform="translate(0.000000,600.000000) scale(0.100000,-0.100000)"
fill="#000000" stroke="none">
<path d="M0 5852 l0 -149 78 -50 c79 -52 491 -343 550 -389 17 -14 32 -31 32
-39 0 -9 6 -12 18 -9 16 5 16 5 -1 -6 -9 -6 -21 -9 -25 -6 -5 3 -53 6 -107 7
-55 1 -107 6 -117 10 -10 5 -27 14 -38 19 -12 6 -25 8 -31 5 -5 -4 -8 -1 -7 6
2 7 -10 17 -27 22 -16 5 -64 24 -105 43 -61 27 -70 30 -47 12 27 -23 91 -60
240 -139 42 -23 77 -45 77 -49 0 -13 111 -52 128 -45 9 3 12 0 9 -9 -4 -9 2
-17 14 -21 10 -4 16 -11 13 -17 -4 -7 -2 -8 5 -4 12 8 76 -32 67 -42 -9 -8 33
-34 44 -27 6 3 10 0 10 -9 0 -8 12 -24 28 -36 l27 -22 -37 20 c-20 12 -88 49
-150 83 -62 34 -144 83 -183 109 -38 26 -90 57 -115 70 -25 12 -67 37 -95 55
-72 45 -242 145 -249 145 -3 0 -6 -67 -6 -149 l0 -149 53 -30 c28 -16 88 -48
132 -72 173 -92 205 -112 215 -130 5 -10 10 -21 10 -23 0 -6 -55 -10 -165 -11
-85 0 -106 3 -142 22 -41 21 -103 30 -103 15 1 -15 310 -147 310 -133 0 6 5
10 10 10 6 0 10 -6 10 -14 0 -13 44 -32 63 -27 5 1 6 -3 3 -8 -6 -10 23 -25
32 -16 3 3 -1 5 -8 5 -7 0 -11 2 -8 5 9 10 38 -7 31 -18 -4 -6 0 -8 9 -5 8 4
21 2 29 -4 11 -8 10 -9 -3 -4 -10 3 -18 4 -18 2 0 -5 82 -55 120 -73 l25 -13
-25 6 c-14 4 -38 13 -53 21 -16 8 -80 34 -143 59 -63 24 -137 55 -166 70 -46
23 -208 94 -215 94 -2 0 -3 -36 -3 -79 0 -54 4 -81 13 -84 9 -4 9 -6 0 -6 -9
-1 -13 -19 -13 -54 l0 -53 68 -24 c84 -29 122 -48 122 -60 0 -6 -12 -10 -27
-11 -24 0 -25 -1 -8 -8 l20 -8 -20 -6 c-11 -3 -45 -11 -75 -17 -30 -7 -61 -14
-67 -16 -7 -2 -13 -14 -13 -27 0 -21 8 -26 63 -41 128 -36 195 -58 289 -93 54
-20 97 -38 95 -39 -3 -4 -208 51 -429 113 -17 5 -18 -6 -18 -124 l0 -130 33
-10 32 -10 -34 -15 c-22 -10 -29 -17 -20 -21 10 -4 10 -6 2 -6 -17 -1 -17 -38
0 -44 9 -4 9 -6 0 -6 -8 -1 -13 -15 -13 -35 l0 -34 81 -12 c84 -13 224 -47
201 -49 -7 -1 -43 3 -80 8 -37 6 -97 12 -134 16 l-68 6 0 -209 0 -209 148 -10
147 -10 -132 -1 c-72 -1 -138 -5 -147 -8 -14 -5 -16 -33 -16 -205 0 -154 3
-198 13 -195 31 10 137 15 137 7 0 -5 -34 -15 -75 -22 l-75 -12 0 -128 c0 -92
3 -129 13 -132 10 -4 10 -6 0 -6 -9 -1 -13 -25 -13 -87 0 -78 2 -85 17 -79 38
15 140 42 183 48 38 5 30 1 -45 -28 -50 -19 -105 -37 -122 -41 l-33 -6 0 -138
c0 -151 6 -167 53 -129 38 29 51 23 27 -12 -12 -16 -28 -28 -35 -25 -7 2 -12
-3 -11 -12 0 -10 -6 -17 -14 -16 -9 1 -17 -7 -17 -17 -2 -24 5 -24 31 -1 20
17 20 17 0 -10 -10 -15 -22 -28 -26 -28 -5 0 -8 -106 -8 -235 l0 -235 36 15
c56 23 64 17 14 -10 -25 -13 -41 -24 -37 -25 5 0 17 5 29 11 11 6 22 8 25 6 6
-7 -53 -38 -61 -32 -3 3 -2 0 3 -6 4 -6 15 -11 22 -12 15 -3 19 -9 19 -31 0
-10 -7 -12 -22 -8 -14 3 -19 1 -14 -6 3 -6 2 -13 -4 -17 -5 -3 -10 -17 -10
-30 0 -19 4 -23 18 -19 16 5 16 5 0 -6 -16 -10 -18 -31 -18 -197 0 -189 3
-203 34 -142 6 13 82 71 169 130 87 59 166 113 175 121 34 29 96 62 88 47 -4
-8 4 -1 18 14 21 23 27 25 32 13 3 -9 -3 -31 -15 -49 -27 -44 -27 -55 0 -31
17 15 14 5 -14 -52 -46 -92 -197 -244 -365 -369 -74 -55 -121 -97 -122 -108 0
-13 27 5 93 60 50 43 139 114 197 158 58 43 107 81 110 85 3 3 41 35 85 70 44
35 106 88 138 117 58 53 176 138 182 131 4 -4 -167 -156 -219 -193 -23 -16
-77 -59 -120 -95 -206 -170 -259 -212 -358 -284 l-108 -78 0 -274 0 -274 23 5
c20 5 24 3 23 -17 -1 -14 4 -22 12 -20 8 1 11 -2 8 -7 -4 -5 -20 -12 -36 -16
-29 -6 -30 -9 -30 -61 0 -31 5 -65 11 -76 8 -15 8 -19 0 -14 -7 4 -11 -1 -11
-14 0 -18 3 -19 23 -9 l22 11 -22 -21 c-13 -12 -23 -26 -23 -31 0 -6 180 -10
480 -10 478 0 481 0 470 20 -6 11 -20 20 -30 20 -50 0 3 127 95 225 l56 60
-40 -60 c-47 -72 -88 -213 -71 -245 10 -19 21 -20 200 -19 l188 1 -4 24 c-6
31 7 30 44 -1 29 -24 29 -24 256 -24 176 0 232 4 254 15 15 7 38 13 52 13 20
-1 17 -4 -15 -14 -34 -11 148 -14 1135 -14 1167 0 1175 0 1150 19 -32 25 -16
25 30 1 33 -18 37 -18 63 -3 15 9 27 20 27 24 0 18 31 6 46 -17 16 -25 19 -26
127 -24 60 1 104 5 97 9 -8 5 -3 18 20 44 32 36 56 48 47 24 -2 -7 10 -21 26
-31 37 -23 27 -34 -33 -40 -25 -2 43 -4 150 -5 l195 -1 28 36 c15 20 27 32 27
27 0 -5 -7 -18 -15 -28 -8 -11 -15 -23 -15 -28 0 -4 216 -8 480 -8 l480 0 0
444 0 444 -47 32 c-27 17 -68 48 -93 70 -75 65 -309 252 -374 299 -33 24 -83
65 -111 91 -27 27 -63 59 -80 72 -16 12 -41 34 -55 47 l-25 24 25 -17 c14 -9
52 -35 85 -57 33 -22 93 -70 133 -106 40 -36 115 -99 165 -140 51 -40 103 -83
117 -95 14 -12 55 -44 92 -71 37 -27 65 -54 61 -60 -3 -5 -1 -7 4 -4 10 6 47
-17 82 -51 7 -7 16 -10 19 -7 8 7 -36 48 -137 130 -41 33 -93 80 -115 104 -23
24 -55 57 -71 75 -42 44 -74 98 -72 123 0 11 -10 41 -23 66 -26 50 -20 76 10
40 10 -13 23 -23 29 -23 6 0 11 -5 11 -11 0 -5 4 -8 9 -4 14 8 77 -30 73 -45
-1 -6 2 -9 8 -5 5 3 10 1 10 -4 0 -6 3 -10 8 -9 15 4 72 -33 72 -48 0 -8 4
-13 9 -10 12 8 61 -33 61 -51 0 -12 3 -13 14 -4 10 9 16 8 26 -3 6 -9 9 -19 6
-25 -4 -5 0 -16 8 -24 8 -8 13 -17 11 -19 -3 -3 9 -3 25 0 l30 4 0 167 c0 120
-4 171 -12 180 -11 11 -10 13 0 7 10 -6 12 97 12 504 0 281 -4 509 -8 506 -4
-2 -20 2 -37 10 l-30 13 38 -5 37 -6 0 216 0 215 -32 10 -33 9 32 1 33 1 0
200 -1 200 -67 1 c-65 2 -62 3 26 15 l42 5 0 206 0 206 -57 -6 c-32 -4 -76 -9
-98 -12 -22 -3 -2 4 45 16 47 11 91 22 98 25 9 2 12 54 12 214 l0 212 -32 -7
c-18 -4 -86 -20 -152 -36 -65 -16 -121 -29 -125 -29 -23 2 262 100 292 100 14
0 17 9 17 55 l0 55 -32 1 -33 1 30 8 c28 6 26 8 -22 15 -29 4 -53 11 -53 14 0
4 25 18 55 31 l55 24 0 133 c0 87 -4 133 -11 133 -5 0 -63 -24 -127 -54 -64
-29 -142 -63 -172 -74 -30 -11 -81 -31 -113 -46 -32 -14 -55 -21 -52 -15 9 13
223 119 302 150 34 13 59 28 56 33 -4 5 1 7 10 3 8 -3 21 0 27 8 6 8 27 19 46
25 53 18 40 28 -23 18 -32 -6 -89 -7 -128 -4 -72 7 -105 20 -58 24 14 1 29 5
32 8 3 4 -15 4 -42 2 -92 -10 -68 13 125 118 l128 69 0 149 c0 121 -2 147 -14
143 -7 -3 -70 -40 -140 -81 -70 -42 -129 -76 -133 -76 -3 0 -42 -24 -87 -53
-44 -30 -126 -79 -181 -109 -55 -30 -117 -65 -137 -78 -58 -34 -45 -18 22 29
35 24 57 47 54 53 -4 7 -2 8 5 4 6 -4 23 1 39 12 15 11 83 51 152 90 69 38
168 97 220 131 52 33 119 75 148 92 28 17 52 33 52 36 0 3 -17 -5 -37 -17
-103 -61 -167 -92 -189 -92 -13 0 -27 -5 -31 -11 -4 -6 -1 -7 7 -2 9 5 11 4 6
-4 -4 -6 -11 -9 -16 -6 -5 3 -21 -2 -35 -11 -13 -9 -43 -20 -66 -25 -48 -11
-139 -1 -118 12 20 12 -23 12 -55 -1 -18 -6 -26 -6 -26 1 0 5 -19 -4 -42 -20
-82 -59 -193 -134 -183 -124 36 37 440 331 648 473 l137 93 0 174 0 173 -24 0
c-13 0 -26 -4 -28 -8 -4 -9 -294 -253 -353 -297 -56 -41 -159 -128 -163 -137
-2 -5 -9 -8 -16 -8 -7 0 -44 -28 -83 -62 -39 -35 -124 -103 -189 -151 -66 -48
-135 -100 -154 -115 -19 -14 2 9 47 52 46 43 94 87 108 98 14 11 23 24 19 29
-3 5 -1 8 4 7 10 -3 102 60 102 70 0 4 13 13 28 20 15 6 45 28 66 47 21 19 40
35 42 35 2 0 17 14 34 30 17 17 34 30 38 30 5 0 17 8 28 18 10 9 67 57 127
105 59 49 107 91 107 94 0 6 -9 0 -105 -81 -88 -73 -143 -111 -175 -121 -27
-8 -78 -45 -64 -45 33 -2 -123 -52 -171 -55 -58 -4 -59 -4 -35 11 14 8 17 13
8 10 -9 -3 -34 -8 -55 -12 l-38 -7 40 44 c22 24 78 79 125 122 47 43 132 123
190 177 l104 99 -197 0 c-108 0 -197 -4 -197 -8 0 -5 -34 -43 -76 -85 -42 -42
-74 -76 -70 -76 3 0 -49 -57 -117 -127 -190 -199 -252 -261 -221 -222 16 20
38 49 49 64 11 16 26 34 33 42 7 7 10 17 7 23 -3 5 0 10 7 10 20 1 90 87 75
93 -6 3 0 10 16 16 17 7 25 15 21 23 -4 6 -3 8 3 5 5 -3 25 10 44 30 19 21 26
31 17 24 -11 -8 -18 -9 -18 -3 0 6 5 14 10 17 6 3 10 10 10 16 0 11 -30 13
-30 2 -1 -5 -21 -30 -47 -58 -25 -27 -42 -43 -38 -35 4 8 -2 4 -15 -8 -18 -19
-24 -21 -31 -10 -7 10 -9 9 -9 -4 0 -19 -42 -34 -61 -22 -7 4 -9 3 -5 -4 4 -6
-20 -25 -59 -45 l-66 -35 20 31 c11 18 27 31 34 29 8 -1 21 6 28 15 12 16 12
17 -2 6 -19 -15 -34 -5 -16 11 7 6 44 58 82 116 38 58 75 111 82 118 7 8 18
22 24 33 10 19 6 19 -133 17 l-143 -3 -120 -181 c-66 -100 -126 -190 -133
-200 -7 -10 8 20 33 69 25 48 41 87 36 87 -5 0 -13 -9 -16 -21 -4 -11 -9 -18
-12 -15 -5 5 19 51 77 149 12 20 19 37 16 37 -3 0 -62 -87 -132 -192 -70 -106
-128 -194 -129 -196 -2 -2 -17 4 -34 13 -18 9 -37 13 -43 9 -7 -4 -2 9 10 30
12 20 22 42 22 49 0 6 40 91 90 189 87 173 89 178 65 178 -21 0 -30 -10 -51
-55 -26 -55 -41 -73 -29 -35 4 14 2 20 -8 20 -12 0 -13 -6 -8 -27 8 -28 -14
-93 -31 -93 -4 0 -8 -9 -8 -20 0 -29 -29 -82 -40 -75 -5 3 -9 23 -8 43 1 20
-1 81 -5 135 l-7 97 56 0 c46 0 55 -3 50 -15 -3 -8 0 -15 7 -16 7 0 3 -4 -7
-8 -20 -8 -20 -8 0 -13 14 -3 23 4 35 29 l16 33 -96 0 -96 0 -29 -73 c-63
-158 -89 -217 -94 -213 -2 3 1 19 7 37 6 18 9 35 6 37 -7 7 -35 -31 -29 -39 2
-4 -4 -13 -13 -20 -14 -12 -15 -11 -9 11 5 17 0 13 -18 -15 -14 -22 -26 -45
-26 -51 0 -26 -42 -27 -76 -4 l-22 15 20 75 c11 41 23 91 27 111 4 19 11 42
16 49 5 9 4 11 -3 6 -7 -4 -12 -3 -12 3 0 5 8 15 18 20 13 8 14 11 2 11 -12 0
-10 4 4 15 17 13 17 15 3 15 -12 0 -21 -17 -33 -57 -9 -32 -24 -76 -34 -98
-10 -22 -20 -47 -23 -55 -3 -8 -6 -10 -6 -5 -1 6 -18 9 -41 7 -29 -3 -41 0
-46 11 -3 9 -12 13 -20 10 -8 -3 -14 0 -14 6 0 6 5 11 12 11 7 0 6 5 -4 13
-14 11 -14 21 -2 87 7 41 11 76 10 78 -2 1 -11 -26 -19 -60 -9 -35 -23 -81
-32 -103 l-15 -40 4 50 4 50 -19 -35 -20 -35 5 40 4 40 -18 -40 c-10 -22 -19
-45 -19 -51 -1 -10 -44 -24 -72 -24 -11 0 -12 90 -1 107 4 6 6 32 4 57 l-4 46
-624 0 c-383 0 -624 -4 -624 -9 0 -6 5 -13 10 -16 6 -3 10 -14 10 -23 -1 -15
-3 -14 -15 3 -28 39 -36 45 -61 45 -25 0 -25 -1 18 -52 24 -29 35 -49 26 -45
-21 7 -23 -6 -5 -25 6 -8 25 -28 41 -46 23 -24 27 -34 18 -45 -7 -8 -10 -16
-7 -19 3 -3 -1 -11 -10 -18 -8 -7 -15 -22 -15 -34 -1 -22 -43 63 -100 202 -18
45 -39 82 -45 82 -16 0 -11 -76 9 -129 29 -80 10 -53 -29 39 l-38 91 -173 -1
-172 -2 4 -23 c3 -19 1 -22 -16 -18 -22 6 -25 14 -10 29 7 7 6 11 -5 11 -8 0
-15 -7 -15 -16 -1 -14 -2 -13 -11 2 -9 14 -59 26 -59 12 0 -13 49 -73 54 -67
4 3 4 -1 0 -11 -3 -9 -2 -17 3 -17 5 0 15 -15 21 -34 10 -27 17 -33 33 -29 14
4 19 12 16 25 -4 16 -3 17 9 7 7 -6 12 -15 9 -19 -2 -4 4 -15 15 -25 11 -10
20 -23 20 -29 0 -6 -10 1 -21 16 -17 23 -23 26 -39 16 -18 -11 -17 -14 7 -62
34 -69 20 -52 -76 90 -44 67 -87 127 -95 133 -9 8 -60 11 -156 9 l-142 -3 35
-45 c43 -56 66 -101 60 -117 -5 -15 -33 -18 -33 -4 0 5 -19 12 -42 16 -56 9
-173 70 -193 101 -9 14 -20 22 -26 19 -5 -4 -8 -1 -7 6 2 7 -1 14 -7 14 -5 1
-18 5 -28 10 -32 14 -27 0 18 -49 73 -82 231 -241 241 -244 16 -6 44 -34 39
-42 -2 -4 9 -22 25 -41 16 -19 29 -38 30 -44 0 -5 14 -25 31 -42 16 -18 26
-33 21 -33 -5 0 -23 16 -40 36 -18 20 -83 90 -147 155 -63 65 -115 121 -115
124 1 4 -37 46 -84 96 l-85 89 -191 -2 -190 -3 92 -84 c104 -94 358 -340 358
-347 0 -2 -7 -4 -15 -4 -8 0 -15 -5 -15 -11 0 -7 -9 -9 -24 -5 -12 3 -41 8
-62 11 -76 12 -112 26 -170 65 -33 22 -64 40 -71 40 -10 0 -111 72 -203 146
-81 66 3 -15 104 -100 219 -181 379 -299 391 -288 5 4 5 2 2 -4 -8 -14 14 -34
40 -38 10 -2 18 -8 18 -15 0 -12 114 -121 127 -121 4 0 12 -9 18 -21 10 -18
10 -19 -8 -10 -10 5 -24 17 -32 26 -7 8 -72 59 -144 112 -72 53 -157 119 -188
147 -31 28 -98 83 -149 121 -88 68 -246 196 -396 324 -72 60 -74 61 -133 61
l-60 0 0 -148z m1757 100 c25 -30 29 -42 13 -42 -7 0 -7 -6 0 -20 6 -11 17
-20 25 -20 8 0 15 -4 15 -10 0 -17 -15 -12 -69 23 -52 33 -60 52 -24 52 12 0
25 4 29 8 5 4 0 5 -11 1 -18 -7 -19 -6 -5 12 14 18 14 18 -3 5 -15 -12 -20
-12 -33 5 -14 18 -15 18 -5 -2 10 -21 6 -34 -10 -34 -6 0 -6 26 0 59 3 12 60
-15 78 -37z m-97 -11 c0 -5 -7 -11 -14 -14 -10 -4 -13 -1 -9 9 6 15 23 19 23
5z m190 -1 c0 -5 -4 -10 -10 -10 -5 0 -10 5 -10 10 0 6 5 10 10 10 6 0 10 -4
10 -10z m2226 -5 c-3 -8 -1 -15 4 -15 6 0 10 -7 10 -15 0 -8 -7 -15 -15 -15
-7 0 -19 -8 -24 -17 -6 -10 -11 -15 -11 -11 0 12 32 88 37 88 3 0 3 -7 -1 -15z
m-1092 -47 c-88 -76 -113 -110 -145 -193 -52 -133 -54 -233 -10 -348 6 -16 8
-33 5 -39 -4 -6 -3 -9 2 -6 5 3 16 -10 25 -28 23 -47 11 -42 -30 12 -49 65
-94 216 -95 319 0 88 28 192 66 240 29 37 32 26 9 -33 -25 -62 -10 -79 18 -23
25 49 91 106 145 125 62 22 63 20 10 -26z m2186 38 c0 -3 -4 -8 -10 -11 -5 -3
-10 -1 -10 4 0 6 5 11 10 11 6 0 10 -2 10 -4z m-3670 -16 c0 -5 -4 -10 -10
-10 -5 0 -10 5 -10 10 0 6 5 10 10 10 6 0 10 -4 10 -10z m1289 -22 c-7 -12
-27 -38 -45 -57 -41 -43 -92 -137 -110 -205 -33 -123 -4 -268 69 -352 40 -46
41 -48 10 -29 -17 11 -31 24 -31 28 0 5 -12 21 -26 36 -15 15 -23 31 -19 36 5
4 -2 3 -14 -4 -19 -10 -25 -7 -47 22 -31 40 -56 108 -56 150 0 34 37 164 48
171 5 3 6 -8 4 -24 -2 -17 -1 -42 3 -57 6 -26 9 -23 26 34 27 87 59 139 131
214 35 36 64 64 66 63 2 -1 -2 -13 -9 -26z m2541 -23 c-7 -9 -15 -13 -18 -10
-3 2 1 11 8 20 7 9 15 13 18 10 3 -2 -1 -11 -8 -20z m-3950 5 c0 -5 -4 -10
-10 -10 -5 0 -10 5 -10 10 0 6 5 10 10 10 6 0 10 -4 10 -10z m1750 4 c0 -3
-11 -15 -25 -26 -14 -11 -30 -28 -36 -39 -9 -18 -7 -19 22 -14 17 3 44 12 60
20 15 8 48 15 73 15 44 0 126 -25 126 -39 0 -3 -18 -7 -40 -7 -22 -1 -64 -13
-92 -27 l-53 -26 35 30 c54 46 57 48 66 41 5 -4 4 -1 -2 7 -10 10 -17 10 -43
-3 -54 -29 -94 -81 -134 -177 -32 -78 -38 -87 -34 -54 3 23 14 60 25 83 26 53
6 58 -35 8 -25 -32 -28 -33 -39 -17 -14 19 -4 83 18 125 9 18 9 19 -3 9 -17
-14 -39 -57 -69 -135 -12 -32 -26 -58 -31 -58 -5 0 -18 -14 -28 -31 l-19 -30
-6 35 c-15 77 10 169 61 230 53 64 92 86 149 86 30 0 54 -3 54 -6z m950 2 c0
-2 -7 -19 -15 -37 -14 -34 -20 -23 -9 19 5 18 24 33 24 18z m-2825 -86 c-3 -6
-16 -10 -28 -10 -18 0 -19 2 -7 10 12 8 10 10 -8 10 -13 0 -20 4 -17 10 3 6 0
10 -8 10 -8 0 -17 7 -21 15 -4 11 8 8 45 -10 27 -14 47 -30 44 -35z m1889 46
c-3 -7 -17 -19 -32 -25 l-27 -12 29 25 c33 30 37 31 30 12z m-1399 -14 c-3 -3
-11 0 -18 7 -9 10 -8 11 6 5 10 -3 15 -9 12 -12z m-445 -51 c0 -14 -19 -35
-34 -37 -9 -1 -14 2 -10 7 3 5 9 7 13 5 4 -3 8 5 8 17 1 12 -1 17 -5 11 -4 -6
-16 -14 -27 -17 -18 -6 -17 -5 3 12 21 18 52 19 52 2z m170 9 c0 -5 -4 -10
-10 -10 -5 0 -10 5 -10 10 0 6 5 10 10 10 6 0 10 -4 10 -10z m1253 -70 c-7
-41 -23 -103 -33 -138 -11 -34 -20 -75 -20 -90 0 -21 -2 -24 -10 -12 -13 19
-3 130 17 195 17 53 52 129 58 123 1 -1 -4 -37 -12 -78z m-953 54 c0 -8 -19
-13 -24 -6 -3 5 1 9 9 9 8 0 15 -2 15 -3z m1890 -5 c0 -4 16 -17 36 -28 20
-12 34 -25 30 -28 -3 -3 -23 5 -43 19 -21 14 -49 29 -63 35 -23 9 -23 10 8 10
18 0 32 -4 32 -8z m-2273 -22 c9 0 10 -4 2 -14 -15 -17 -29 -17 -29 1 0 8 -3
16 -7 19 -5 2 -1 2 7 -1 8 -2 21 -5 27 -5z m420 -22 c8 14 14 12 46 -14 21
-16 33 -32 27 -36 -5 -3 -10 0 -11 7 0 10 -2 10 -6 1 -7 -18 -23 -16 -23 1 0
21 -20 30 -33 16 -9 -10 -8 -12 4 -7 13 4 16 1 12 -14 -3 -11 -7 -18 -8 -17
-1 2 -14 23 -29 48 -17 29 -20 37 -7 22 17 -20 21 -21 28 -7z m2773 5 c0 -5
-4 -10 -10 -10 -5 0 -10 5 -10 10 0 6 5 10 10 10 6 0 10 -4 10 -10z m-2000 -8
c0 -4 -39 -15 -87 -25 -200 -41 -505 -164 -706 -284 -113 -68 -168 -107 -329
-232 -37 -29 -36 -26 12 20 31 30 125 101 210 158 238 159 484 270 745 337
141 36 155 38 155 26z m-860 -22 c6 -11 8 -20 6 -20 -3 0 -10 9 -16 20 -6 11
-8 20 -6 20 3 0 10 -9 16 -20z m1968 4 c22 -15 30 -44 12 -44 -5 0 -10 7 -10
15 0 12 -8 14 -30 10 -29 -5 -30 -4 -20 15 13 24 19 25 48 4z m-2303 -4 c-3
-5 -11 -10 -16 -10 -6 0 -7 5 -4 10 3 6 11 10 16 10 6 0 7 -4 4 -10z m3155 0
c0 -5 -4 -10 -10 -10 -5 0 -10 5 -10 10 0 6 5 10 10 10 6 0 10 -4 10 -10z
m297 -7 c-14 -14 -19 -15 -29 -4 -11 11 -10 13 4 8 10 -3 20 -2 23 3 4 6 9 10
13 10 3 0 -1 -8 -11 -17z m-337 -3 c0 -5 -2 -10 -4 -10 -3 0 -8 5 -11 10 -3 6
-1 10 4 10 6 0 11 -4 11 -10z m650 -15 c-12 -13 -27 -22 -32 -19 -5 3 -20 -1
-33 -10 -28 -19 -35 -20 -35 -6 0 11 88 59 109 60 10 0 7 -8 -9 -25z m-1805 5
c-3 -5 -12 -10 -18 -10 -7 0 -6 4 3 10 19 12 23 12 15 0z m-1409 -60 c24 -44
27 -56 14 -56 -8 0 -28 -3 -45 -7 -16 -3 -24 -4 -17 -1 18 8 15 27 -4 20 -10
-4 -18 3 -26 24 -5 17 -14 30 -19 30 -5 0 -9 6 -9 13 1 6 9 2 20 -11 18 -21
39 -14 25 9 -4 6 1 16 11 24 11 7 19 13 20 12 0 -1 14 -27 30 -57z m1251 23
c-20 -20 -37 -42 -37 -49 0 -7 -6 -17 -13 -21 -7 -4 -21 -19 -30 -33 -23 -33
-22 -12 2 43 19 44 73 97 100 97 8 0 -1 -16 -22 -37z m608 17 c10 -11 21 -17
26 -14 5 3 64 -18 131 -46 67 -27 128 -50 135 -50 7 0 13 -4 13 -10 0 -5 7
-10 15 -10 8 0 30 -10 48 -22 19 -13 43 -28 53 -35 16 -10 -142 57 -245 104
-18 8 -62 25 -97 37 -59 21 -133 66 -108 66 6 0 19 -9 29 -20z m969 -5 c-9
-14 -21 -25 -27 -25 -6 0 0 11 13 25 13 14 25 25 27 25 2 0 -4 -11 -13 -25z
m676 -9 c0 -2 -8 -10 -17 -17 -16 -13 -17 -12 -4 4 13 16 21 21 21 13z m-4195
-16 c3 -5 1 -10 -4 -10 -6 0 -11 5 -11 10 0 6 2 10 4 10 3 0 8 -4 11 -10z
m2435 -22 c0 -6 -7 -5 -15 2 -8 7 -15 17 -15 22 0 6 7 5 15 -2 8 -7 15 -17 15
-22z m1044 0 c10 -18 13 -27 5 -20 -19 18 -34 15 -18 -5 12 -15 12 -16 -2 -11
-11 4 -31 -8 -59 -37 -24 -24 -47 -42 -51 -39 -4 2 -11 0 -14 -6 -4 -6 -1 -9
6 -8 6 2 14 -3 17 -11 2 -8 0 -11 -5 -8 -5 3 -17 -3 -26 -14 -23 -26 -37 -24
-37 6 0 22 -2 24 -14 13 -12 -11 -12 -15 1 -30 15 -16 14 -20 -11 -43 -15 -14
-31 -25 -35 -25 -14 0 -31 26 -23 35 4 5 -1 5 -10 2 -12 -4 -4 14 24 57 29 43
47 62 59 59 9 -3 31 5 50 16 41 25 53 26 45 5 -3 -9 -2 -12 5 -9 6 4 8 13 5
20 -2 7 6 18 19 25 15 8 21 19 18 29 -4 14 -3 14 6 1 8 -12 13 -12 23 -2 9 9
9 12 0 12 -7 0 -12 5 -12 10 0 20 16 9 34 -22z m-1724 -38 l-11 -25 6 25 c2
14 5 34 6 45 2 19 2 19 6 0 2 -12 -1 -32 -7 -45z m1365 30 c-5 -8 -11 -8 -17
-2 -6 6 -7 16 -3 22 5 8 11 8 17 2 6 -6 7 -16 3 -22z m-1072 13 c-7 -2 -19 -2
-25 0 -7 3 -2 5 12 5 14 0 19 -2 13 -5z m1312 -3 c-3 -5 -10 -10 -16 -10 -5 0
-9 5 -9 10 0 6 7 10 16 10 8 0 12 -4 9 -10z m-3210 -18 c-3 -3 -11 0 -18 7 -9
10 -8 11 6 5 10 -3 15 -9 12 -12z m1829 -7 c-4 -8 -12 -15 -20 -15 -7 0 -18
-8 -24 -17 -10 -17 -10 -16 -8 2 2 11 14 25 28 32 31 16 31 16 24 -2z m541 5
c3 -5 1 -10 -4 -10 -6 0 -11 5 -11 10 0 6 2 10 4 10 3 0 8 -4 11 -10z m90 -10
c3 -5 1 -10 -4 -10 -6 0 -11 5 -11 10 0 6 2 10 4 10 3 0 8 -4 11 -10z m709
-19 c3 -5 -3 -11 -15 -14 -16 -4 -18 -3 -8 9 13 16 16 17 23 5z m-3586 -26
c-3 -3 -9 2 -12 12 -6 14 -5 15 5 6 7 -7 10 -15 7 -18z m-78 -19 c0 -5 -3 -6
-7 -3 -3 4 -11 3 -17 -2 -7 -5 -20 0 -35 14 l-23 23 41 -11 c22 -6 41 -15 41
-21z m590 30 c0 -3 -4 -8 -10 -11 -5 -3 -10 -1 -10 4 0 6 5 11 10 11 6 0 10
-2 10 -4z m3746 -21 c-23 -18 -36 -19 -36 -4 0 5 4 8 9 4 5 -3 12 -1 16 5 3 5
12 10 18 10 7 0 3 -7 -7 -15z m-4310 -24 c-8 -12 3 -41 15 -41 5 0 18 9 29 20
11 11 20 16 20 11 0 -18 -33 -42 -54 -39 -15 2 -22 11 -24 31 -2 15 2 27 8 27
6 0 9 -4 6 -9z m41 -8 c2 -6 -3 -13 -12 -16 -10 -5 -15 0 -15 14 0 21 21 22
27 2z m1383 12 c0 -2 -10 -9 -22 -15 -22 -11 -22 -10 -4 4 21 17 26 19 26 11z
m-1450 -15 c0 -5 -2 -10 -4 -10 -3 0 -8 5 -11 10 -3 6 -1 10 4 10 6 0 11 -4
11 -10z m125 -10 c-3 -5 -11 -10 -16 -10 -6 0 -7 5 -4 10 3 6 11 10 16 10 6 0
7 -4 4 -10z m4640 0 c3 -5 1 -10 -4 -10 -6 0 -11 5 -11 10 0 6 2 10 4 10 3 0
8 -4 11 -10z m-4570 -31 c-10 -15 -75 -22 -98 -10 -21 11 -20 11 6 6 17 -4 26
-1 25 6 -2 6 3 14 11 17 8 2 11 1 8 -4 -3 -5 7 -10 21 -10 15 -1 21 1 15 3 -7
3 -13 9 -13 15 0 6 6 6 15 -2 8 -7 12 -16 10 -21z m3885 -14 c-7 -8 -17 -15
-23 -15 -6 0 -2 7 9 15 25 19 30 19 14 0z m600 11 c0 -3 -4 -8 -10 -11 -5 -3
-10 -1 -10 4 0 6 5 11 10 11 6 0 10 -2 10 -4z m-4457 -21 c1 -6 -10 -11 -25
-13 -31 -4 -39 14 -10 21 23 6 33 4 35 -8z m3242 -34 c21 -15 32 -17 42 -9 8
7 13 7 13 0 0 -24 -35 -20 -86 10 -30 18 -54 36 -54 41 0 8 38 -10 85 -42z
m-2732 14 c-6 -17 -19 -19 -28 -5 -4 6 -1 9 7 8 7 -2 12 3 10 10 -1 8 2 11 7
7 6 -3 8 -12 4 -20z m3292 -15 c-3 -5 -12 -10 -18 -10 -7 0 -6 4 3 10 19 12
23 12 15 0z m-3890 -20 c3 -6 -1 -7 -9 -4 -18 7 -21 14 -7 14 6 0 13 -4 16
-10z m-20 -39 c-6 -5 -25 10 -25 20 0 5 6 4 14 -3 8 -7 12 -15 11 -17z m122
-23 c7 -6 10 -14 7 -19 -3 -5 0 -9 5 -9 6 0 11 -5 11 -12 0 -6 -8 -3 -20 7
-11 10 -17 22 -13 28 4 6 0 8 -10 4 -8 -3 -21 1 -29 10 -11 14 -10 15 12 8 14
-4 31 -12 37 -17z m3858 12 c-3 -5 -12 -10 -18 -10 -7 0 -6 4 3 10 19 12 23
12 15 0z m-65 -19 c0 -5 -9 -11 -21 -14 -16 -4 -18 -3 -8 9 13 16 29 19 29 5z
m-370 -51 c46 -39 34 -39 -15 0 -21 17 -34 30 -29 30 5 0 25 -14 44 -30z m290
20 c0 -5 -4 -10 -10 -10 -5 0 -10 5 -10 10 0 6 5 10 10 10 6 0 10 -4 10 -10z
m-25 -24 c12 -12 11 -14 -9 -12 -14 0 -22 6 -19 14 6 15 11 15 28 -2z m-1739
-161 c41 -86 83 -177 93 -203 11 -26 33 -77 50 -114 17 -36 31 -71 31 -77 0
-7 -11 -34 -25 -61 -14 -28 -23 -50 -20 -50 2 0 16 23 30 50 14 28 28 50 31
50 8 0 148 -42 153 -46 2 -2 -9 -24 -23 -49 -33 -56 -26 -60 10 -4 35 57 43
41 8 -18 -20 -35 -22 -44 -9 -33 17 14 18 14 7 -7 -9 -16 -9 -24 -1 -29 16
-10 29 17 18 37 -6 12 -3 24 9 40 19 22 19 22 37 -67 36 -178 36 -159 -1 -203
-46 -53 -43 -65 4 -15 36 40 40 41 147 58 61 9 137 21 169 27 32 5 64 8 70 6
6 -2 -7 -19 -29 -38 -21 -19 -82 -75 -135 -125 -52 -49 -131 -121 -175 -160
-44 -38 -124 -111 -179 -161 -54 -51 -102 -90 -106 -88 -4 3 28 39 71 81 43
42 76 81 73 86 -7 11 14 38 29 38 6 0 2 -6 -9 -14 -10 -8 -16 -18 -12 -22 14
-13 205 154 204 179 0 9 -4 17 -9 17 -5 0 -7 -7 -4 -14 4 -9 -2 -17 -14 -21
-10 -4 -19 -11 -19 -17 0 -5 -7 -8 -15 -4 -8 3 -15 0 -15 -7 0 -19 -81 -91
-89 -78 -5 7 -19 1 -41 -18 -19 -15 -45 -31 -57 -35 -13 -3 -31 -8 -41 -11
-13 -4 -22 3 -31 21 -10 23 -8 31 24 75 19 27 31 49 26 49 -5 0 -11 -4 -13 -9
-1 -5 -33 -41 -70 -80 -66 -69 -86 -81 -51 -31 10 14 16 33 15 43 -2 9 1 17 5
17 5 0 9 9 9 20 0 11 -2 20 -3 20 -7 0 -26 -56 -24 -70 2 -10 -4 -8 -21 8 -14
12 -27 20 -29 17 -3 -3 -4 9 -1 25 2 17 8 30 13 30 5 0 9 5 9 11 0 6 9 25 21
42 13 21 4 14 -25 -17 -48 -52 -72 -58 -38 -9 54 80 74 114 70 118 -3 3 -26
-26 -52 -65 l-47 -71 -35 46 c-32 42 -35 54 -44 146 -14 147 -17 447 -7 687 3
78 3 151 -1 162 -8 21 -3 105 5 96 3 -2 38 -75 79 -161z m1073 142 c-45 -36
-79 -58 -79 -51 1 10 73 63 79 58 2 -2 2 -5 0 -7z m606 -4 c-2 -10 -4 -21 -4
-25 -1 -5 -8 -8 -16 -8 -8 0 -15 -7 -15 -16 0 -8 -4 -13 -9 -10 -4 3 -6 17 -3
32 4 21 13 29 49 43 1 1 0 -7 -2 -16z m735 7 c0 -5 -5 -10 -11 -10 -5 0 -7 5
-4 10 3 6 8 10 11 10 2 0 4 -4 4 -10z m-4253 -16 c3 -8 16 -20 29 -25 29 -10
31 -29 4 -29 -11 0 -20 7 -20 15 0 8 -9 19 -20 25 -21 11 -27 30 -10 30 6 0
13 -7 17 -16z m3603 2 c0 -2 -8 -10 -17 -17 -16 -13 -17 -12 -4 4 13 16 21 21
21 13z m-4219 -30 c20 -2 41 -6 48 -10 6 -4 11 -2 11 3 0 6 5 11 11 11 5 0 7
-5 3 -11 -4 -8 3 -9 24 -5 25 6 33 2 52 -21 12 -15 18 -22 14 -14 -5 10 3 8
25 -5 17 -10 27 -20 21 -22 -5 -2 -7 -8 -4 -14 4 -6 -4 -8 -22 -4 -36 7 -84
14 -147 21 -32 4 -67 18 -103 42 -30 20 -54 38 -54 40 0 2 19 1 43 -2 23 -3
58 -7 78 -9z m3804 -16 c-3 -5 -12 -10 -18 -10 -7 0 -6 4 3 10 19 12 23 12 15
0z m275 -45 c24 -25 40 -45 34 -45 -5 0 -30 20 -54 45 -24 25 -40 45 -34 45 5
0 30 -20 54 -45z m-1553 -2 c-3 -10 -5 -4 -5 12 0 17 2 24 5 18 2 -7 2 -21 0
-30z m-1768 0 c-27 -31 -61 -64 -104 -101 -16 -15 4 8 45 51 72 75 108 105 59
50z m-1024 -33 c3 -5 1 -10 -4 -10 -6 0 -11 5 -11 10 0 6 2 10 4 10 3 0 8 -4
11 -10z m2812 -22 c-3 -7 -5 -2 -5 12 0 14 2 19 5 13 2 -7 2 -19 0 -25z
m-2417 -13 c39 -4 40 -4 40 -19 0 -8 6 -16 13 -19 6 -2 10 -7 7 -9 -3 -3 -32
10 -65 29 -33 19 -51 32 -40 28 11 -5 31 -9 45 -10z m2156 -12 l-5 -28 13 29
13 28 7 -32 c3 -18 6 -50 6 -71 0 -21 4 -41 10 -44 6 -3 8 -41 6 -91 -2 -46
-1 -84 4 -84 4 0 8 -54 9 -120 0 -97 -3 -122 -14 -127 -8 -3 -15 -10 -15 -15
0 -6 7 -8 15 -4 12 4 15 -3 15 -32 0 -21 -5 -43 -11 -49 -5 -5 -11 -26 -11
-44 -1 -31 -12 -48 -31 -49 -4 0 -6 3 -5 8 0 4 -6 23 -16 42 l-17 35 7 -35 c3
-19 10 -39 14 -45 4 -5 13 -32 20 -58 17 -63 6 -73 -51 -48 -27 12 -46 16 -50
10 -3 -6 -26 17 -50 51 -24 34 -67 94 -96 133 -136 190 -99 119 65 -123 58
-85 114 -167 125 -182 11 -15 18 -30 15 -33 -3 -4 -19 12 -34 35 -16 22 -51
71 -78 108 -75 102 -246 365 -241 370 2 2 16 -9 30 -24 15 -16 25 -22 22 -14
-2 9 7 20 25 27 15 7 28 16 27 20 -4 23 5 35 42 53 67 35 74 29 126 -100 25
-63 52 -122 60 -130 9 -10 7 4 -7 40 -51 128 -61 160 -55 170 4 6 11 7 17 4 6
-4 5 2 -2 15 -6 12 -8 32 -4 44 4 12 8 37 9 56 1 19 9 38 19 43 9 5 16 16 16
23 0 17 16 20 25 5 3 -5 11 -10 17 -10 7 0 6 7 -3 18 -16 19 -17 35 -5 70 5
14 3 28 -4 37 -9 10 -7 21 5 44 8 17 13 31 10 31 -10 0 -47 -91 -42 -104 3 -7
-4 -23 -14 -37 l-20 -24 7 30 c10 51 16 69 35 112 11 24 24 54 29 68 13 33 24
32 16 -2z m-2716 7 c0 -5 -4 -10 -10 -10 -5 0 -10 5 -10 10 0 6 5 10 10 10 6
0 10 -4 10 -10z m290 0 c0 -5 -4 -10 -10 -10 -5 0 -10 5 -10 10 0 6 5 10 10
10 6 0 10 -4 10 -10z m2703 -15 c-3 -9 -8 -14 -10 -11 -3 3 -2 9 2 15 9 16 15
13 8 -4z m-2223 -10 c0 -8 -7 -15 -15 -15 -8 0 -15 7 -15 15 0 8 7 15 15 15 8
0 15 -7 15 -15z m1475 -4 c-3 -6 -11 -11 -17 -11 -6 0 -6 6 2 15 14 17 26 13
15 -4z m-2025 5 c0 -3 -4 -8 -10 -11 -5 -3 -10 -1 -10 4 0 6 5 11 10 11 6 0
10 -2 10 -4z m430 -20 c0 -3 -4 -8 -10 -11 -5 -3 -10 -1 -10 4 0 6 5 11 10 11
6 0 10 -2 10 -4z m3240 0 c0 -3 -4 -8 -10 -11 -5 -3 -10 -1 -10 4 0 6 5 11 10
11 6 0 10 -2 10 -4z m-3210 -10 c0 -3 -4 -8 -10 -11 -5 -3 -10 -1 -10 4 0 6 5
11 10 11 6 0 10 -2 10 -4z m145 -20 c12 -12 12 -15 -2 -20 -9 -4 -18 -4 -21
-1 -3 3 1 5 8 5 9 0 7 5 -6 15 -12 9 -14 14 -6 15 7 0 20 -6 27 -14z m-41 -5
c3 -5 -1 -15 -10 -22 -14 -12 -14 -14 2 -26 10 -7 13 -13 7 -13 -13 0 -26 18
-29 38 -1 6 2 12 7 12 6 0 7 5 4 10 -3 6 -2 10 4 10 5 0 12 -4 15 -9z m1130
-6 c-4 -8 -10 -15 -15 -15 -5 0 -9 -5 -9 -11 0 -5 5 -7 10 -4 6 3 10 4 10 2 0
-5 -31 -67 -33 -67 -10 0 -3 67 9 86 18 26 37 33 28 9z m2906 -25 c0 -5 -4
-10 -10 -10 -5 0 -10 5 -10 10 0 6 5 10 10 10 6 0 10 -4 10 -10z m-3913 -34
c-2 -5 -10 -11 -18 -14 -11 -3 -11 -2 -1 6 10 7 10 11 -3 22 -12 10 -15 10
-15 0 0 -8 -3 -11 -6 -7 -3 3 -3 10 0 16 8 13 48 -9 43 -23z m-70 -6 c7 -14
20 -28 30 -31 17 -7 17 -8 1 -8 -10 -1 -23 8 -30 18 -6 10 -16 18 -22 17 -6
-2 -7 -1 -3 2 4 2 2 11 -5 20 -11 13 -11 14 2 10 8 -2 20 -15 27 -28z m79 -79
c-95 -127 -177 -253 -228 -347 -22 -41 -42 -73 -45 -71 -8 8 68 150 130 242
91 137 199 275 214 275 2 0 -30 -44 -71 -99z m3889 89 c4 -6 -1 -7 -11 -3 -13
5 -15 3 -9 -7 5 -9 4 -11 -4 -6 -6 4 -9 12 -6 17 8 12 22 12 30 -1z m27 -22
c-7 -7 -12 -8 -12 -2 0 6 3 14 7 17 3 4 9 5 12 2 2 -3 -1 -11 -7 -17z m48
-195 c88 -129 207 -339 197 -349 -2 -3 -28 39 -57 92 -60 114 -182 303 -251
391 -27 35 -49 66 -49 70 0 16 73 -77 160 -204z m-4440 157 c0 -5 -2 -10 -4
-10 -3 0 -8 5 -11 10 -3 6 -1 10 4 10 6 0 11 -4 11 -10z m3320 -26 c0 -8 -5
-12 -10 -9 -6 4 -8 11 -5 16 9 14 15 11 15 -7z m-1150 -63 c-11 -33 -20 -68
-20 -76 0 -9 -5 -13 -10 -10 -12 7 -5 43 23 108 27 66 32 52 7 -22z m-2329 44
c7 -5 14 -4 17 3 2 7 8 12 14 12 5 0 6 -9 3 -20 -4 -11 -2 -20 4 -20 6 0 11 6
12 13 0 9 2 9 6 -1 3 -7 -3 -20 -13 -27 -26 -20 -154 -20 -180 0 -10 8 -25 15
-32 15 -8 0 -24 8 -37 18 -23 18 -22 19 84 17 60 -1 114 -6 122 -10z m5329 -5
c-20 -13 -33 -13 -25 0 3 6 14 10 23 10 15 0 15 -2 2 -10z m-5230 -20 c12 -8
12 -10 -5 -10 -17 0 -18 -2 -5 -11 13 -9 12 -10 -2 -5 -10 3 -18 1 -18 -4 0
-6 -7 -10 -15 -10 -8 0 -15 5 -15 10 0 6 7 10 15 10 8 0 15 7 15 15 0 17 9 19
30 5z m4101 -57 c13 -16 12 -17 -3 -4 -17 13 -22 21 -14 21 2 0 10 -8 17 -17z
m-101 -56 c30 -22 47 -37 37 -34 -11 4 -16 3 -12 -3 3 -6 12 -10 19 -10 7 0
22 -10 33 -22 24 -28 65 -110 49 -101 -8 5 -8 3 0 -8 12 -16 37 -99 32 -105
-2 -2 -11 11 -20 29 -9 18 -30 60 -47 95 -18 34 -29 67 -26 72 3 6 -1 7 -9 4
-9 -3 -16 -2 -16 3 0 9 -87 98 -125 128 -42 33 28 -6 85 -48z m-4410 49 c0 -3
-4 -8 -10 -11 -5 -3 -10 -1 -10 4 0 6 5 11 10 11 6 0 10 -2 10 -4z m4546 -5
c-3 -5 1 -14 9 -21 8 -7 15 -17 15 -22 0 -6 -9 0 -19 13 -17 21 -19 39 -5 39
3 0 3 -4 0 -9z m-4199 -17 c-3 -3 -12 -4 -19 -1 -8 3 -5 6 6 6 11 1 17 -2 13
-5z m1733 -19 c0 -16 -27 -32 -37 -21 -7 7 16 36 28 36 5 0 9 -7 9 -15z m2541
-2 c13 -17 13 -17 -6 -3 -11 8 -22 16 -24 17 -2 2 0 3 6 3 6 0 17 -8 24 -17z
m-4196 -13 c3 -6 -1 -7 -9 -4 -18 7 -21 14 -7 14 6 0 13 -4 16 -10z m4189 -41
c-3 -5 -10 -7 -15 -3 -5 3 -7 10 -3 15 3 5 10 7 15 3 5 -3 7 -10 3 -15z m-71
-23 c42 -31 61 -64 46 -82 -16 -20 7 -50 27 -33 9 8 15 5 24 -10 9 -18 8 -20
-7 -14 -15 5 -16 3 -5 -8 18 -19 15 -155 -4 -212 -9 -25 -32 -64 -52 -85 -20
-21 -30 -29 -21 -18 69 88 84 218 36 317 -30 62 -33 84 -14 93 6 3 2 3 -10 0
-21 -5 -28 3 -24 28 0 4 -11 16 -24 26 -14 11 -25 23 -25 27 0 7 13 0 53 -29z
m-2773 20 c0 -2 -7 -9 -15 -16 -13 -11 -14 -10 -9 4 5 14 24 23 24 12z m2920
-38 c0 -12 -6 -9 -26 13 -19 22 -19 22 4 8 12 -8 22 -17 22 -21z m-1091 -42
c15 -8 52 -18 80 -22 53 -7 53 -7 47 -37 -4 -17 -14 -42 -23 -56 -16 -25 -16
-25 -24 -4 -6 15 -14 20 -28 16 -12 -3 -21 -1 -21 3 0 5 -18 33 -40 62 -41 54
-39 62 9 38z m661 -6 c0 -5 -4 -10 -10 -10 -5 0 -10 5 -10 10 0 6 5 10 10 10
6 0 10 -4 10 -10z m-1884 -18 c1 -7 2 -17 3 -23 0 -5 6 -7 13 -3 6 4 8 3 4 -4
-3 -6 6 -26 22 -44 30 -35 118 -171 145 -224 9 -17 13 -35 9 -39 -4 -5 -1 -4
7 0 11 6 13 4 7 -10 -7 -20 1 -55 14 -55 4 0 6 10 4 23 -5 22 -5 22 6 -1 5
-13 14 -21 19 -18 13 9 21 -20 14 -54 -4 -21 -11 -30 -24 -30 -28 0 -34 4 -33
18 2 11 -9 16 -28 13 -4 0 -15 13 -24 29 -10 16 -24 32 -30 34 -12 5 5 -19 90
-127 28 -37 30 -74 2 -64 -15 6 -30 -19 -20 -34 3 -5 0 -9 -5 -9 -11 0 -15 14
-11 39 1 9 -4 12 -15 7 -9 -3 -13 -2 -10 4 8 12 -5 13 -24 1 -10 -6 -25 -4
-44 6 -23 11 -28 12 -24 1 2 -7 9 -12 15 -11 6 2 13 -5 16 -15 3 -9 28 -35 56
-57 48 -38 61 -55 41 -55 -5 0 -33 20 -63 43 -79 65 -282 217 -345 259 -30 21
-74 52 -97 71 -22 18 -67 49 -98 67 -96 57 -89 64 59 57 70 -4 172 -10 226
-13 l97 -7 2 69 c1 38 1 93 0 122 0 37 3 52 11 49 7 -2 13 -9 13 -15z m-2441
-122 c3 -5 2 -10 -4 -10 -5 0 -13 5 -16 10 -3 6 -2 10 4 10 5 0 13 -4 16 -10z
m312 -106 c-3 -3 -12 -4 -19 -1 -8 3 -5 6 6 6 11 1 17 -2 13 -5z m4996 -51
c-3 -7 -6 -13 -8 -13 -2 0 -5 6 -8 13 -3 8 1 14 8 14 7 0 11 -6 8 -14z m-78
-23 c14 -27 21 -59 10 -49 -8 9 -35 79 -30 79 2 0 11 -13 20 -30z m-2465 -15
c11 -13 9 -15 -8 -12 -12 2 -25 7 -29 12 -5 4 -2 5 5 1 6 -4 12 -2 12 3 0 15
5 14 20 -4z m960 -4 c0 -5 -7 -12 -16 -15 -8 -3 -12 -10 -9 -16 4 -6 -1 -7
-12 -3 -17 6 -17 5 1 -15 22 -25 23 -22 -29 -58 -24 -16 -41 -22 -43 -15 -2 6
-10 11 -18 11 -9 0 -13 4 -9 10 3 5 12 7 20 3 8 -3 15 0 15 7 0 6 5 8 10 5 6
-3 10 0 11 7 0 10 2 10 6 1 2 -7 9 -13 14 -13 4 0 6 7 3 15 -5 11 -1 14 12 9
16 -5 16 -4 4 5 -8 6 -24 8 -35 5 -15 -4 -13 1 9 17 15 12 33 28 40 35 13 15
26 18 26 5z m31 -72 l-9 -34 -1 35 c0 19 3 46 7 60 l7 25 3 -26 c2 -15 -1 -42
-7 -60z m-1752 15 c7 -30 10 -58 7 -61 -3 -3 -8 8 -11 23 -4 16 -11 42 -16 58
-11 35 -11 36 -1 36 5 0 14 -25 21 -56z m795 40 c3 -8 2 -12 -4 -9 -6 3 -10
10 -10 16 0 14 7 11 14 -7z m132 -37 c28 -42 174 -296 174 -303 0 -3 9 -17 21
-33 l21 -28 -32 -89 c-50 -142 -93 -258 -99 -266 -3 -4 -29 26 -58 66 l-52 73
-5 307 c-2 168 -1 306 2 306 4 0 17 -15 28 -33z m-49 -64 c0 -43 3 -85 5 -93
1 -8 -2 -14 -9 -15 -16 0 -23 -9 -28 -34 -2 -13 1 -21 11 -21 16 0 20 -55 4
-65 -16 -10 -51 -98 -53 -131 -2 -27 -5 -30 -19 -23 -10 6 -18 15 -18 21 0 6
-6 6 -16 -3 -18 -14 -54 -20 -54 -8 0 4 5 11 10 14 6 3 10 11 10 18 0 8 -3 8
-12 -1 -9 -9 -16 -5 -30 18 -20 34 -22 40 -10 40 5 0 13 -12 18 -27 9 -26 10
-26 17 -8 5 11 5 16 1 12 -4 -4 -13 4 -20 17 -10 21 -9 31 11 69 20 41 175
297 179 297 1 0 2 -35 3 -77z m-801 35 c10 -13 15 -20 10 -16 -5 4 -16 3 -26
-2 -23 -12 -32 -2 -19 21 12 24 12 24 35 -3z m-869 -4 c-3 -3 -12 -4 -19 -1
-8 3 -5 6 6 6 11 1 17 -2 13 -5z m1541 -55 c-3 -8 -7 -3 -11 10 -4 17 -3 21 5
13 5 -5 8 -16 6 -23z m942 15 c0 -8 -4 -12 -10 -9 -5 3 -10 10 -10 16 0 5 5 9
10 9 6 0 10 -7 10 -16z m-1600 -4 c0 -5 -2 -10 -4 -10 -3 0 -8 5 -11 10 -3 6
-1 10 4 10 6 0 11 -4 11 -10z m-1815 -10 c3 -5 1 -10 -4 -10 -6 0 -11 5 -11
10 0 6 2 10 4 10 3 0 8 -4 11 -10z m185 6 c0 -3 -4 -8 -10 -11 -5 -3 -10 -1
-10 4 0 6 5 11 10 11 6 0 10 -2 10 -4z m3135 -16 c3 -5 -1 -10 -9 -10 -9 0
-16 5 -16 10 0 6 4 10 9 10 6 0 13 -4 16 -10z m-862 -29 c13 -2 8 -19 -8 -25
-19 -7 -42 2 -48 18 -4 10 19 14 56 7z m-2567 -28 c-5 -29 -96 -46 -96 -18 0
20 28 31 42 17 12 -12 41 -4 32 9 -3 5 1 9 10 9 8 0 13 -8 12 -17z m3104 -16
c0 -2 -10 -12 -22 -23 l-23 -19 19 23 c18 21 26 27 26 19z m-396 -32 c-4 -8
-10 -13 -15 -10 -4 3 -6 12 -3 20 4 8 10 13 15 10 4 -3 6 -12 3 -20z m2426 4
c0 -5 -3 -8 -7 -8 -20 3 -23 -3 -13 -23 10 -21 10 -21 -3 -6 -8 10 -18 14 -22
10 -11 -9 6 19 20 34 11 13 25 9 25 -7z m-3270 -87 c18 -82 14 -115 -16 -126
-28 -11 -41 25 -35 94 1 14 3 41 4 61 1 31 3 34 13 20 10 -13 11 -10 7 14 -12
64 11 11 27 -63z m1118 54 c-31 -26 -37 -41 -13 -32 19 7 20 -8 2 -23 -11 -8
-17 -3 -30 25 -10 19 -13 33 -7 29 5 -3 10 0 10 7 0 9 3 9 10 -2 6 -9 10 -10
10 -3 0 10 9 15 40 22 3 0 -7 -10 -22 -23z m546 -81 c-9 -23 -41 -38 -50 -23
-4 7 -3 8 4 4 6 -4 19 2 29 14 21 24 24 25 17 5z m-3467 -11 c-3 -3 -12 -4
-19 -1 -8 3 -5 6 6 6 11 1 17 -2 13 -5z m458 -14 c-3 -5 -33 -30 -66 -56 l-60
-46 33 45 c28 37 44 49 96 66 2 1 0 -3 -3 -9z m-158 -22 c-3 -8 -6 -5 -6 6 -1
11 2 17 5 13 3 -3 4 -12 1 -19z m3274 12 c36 11 75 13 51 3 -10 -4 -9 -9 4
-24 13 -14 32 -19 78 -20 l61 -1 -57 -9 c-32 -4 -67 -13 -79 -19 -42 -23 -119
17 -119 62 0 16 3 18 13 9 9 -7 24 -8 48 -1z m-3291 -107 c-20 -108 -31 -405
-20 -549 11 -150 48 -363 86 -497 29 -104 26 -127 -5 -35 -80 240 -120 654
-91 933 11 110 33 232 38 217 2 -6 -2 -37 -8 -69z m3171 -25 c-11 -51 -31
-146 -45 -210 l-26 -117 36 -102 c43 -124 36 -136 -43 -76 -54 40 -54 40 -49
86 41 344 49 399 64 421 22 36 76 99 80 95 2 -2 -5 -46 -17 -97z m209 20 c63
-20 160 -46 215 -58 55 -13 95 -25 88 -27 -6 -2 -28 0 -48 6 -37 10 -69 5 -60
-9 2 -4 -12 -12 -33 -17 -20 -6 -84 -26 -142 -43 -136 -43 -168 -50 -172 -38
-3 8 -18 13 -49 17 -3 1 0 34 7 74 7 39 13 88 14 108 0 46 7 51 39 35 14 -8
78 -29 141 -48z m-1843 26 c3 -10 -52 -34 -80 -34 -9 0 -17 -4 -17 -10 0 -5
-3 -9 -7 -9 -22 4 -43 -2 -43 -11 0 -12 41 -4 89 17 31 14 35 14 43 -1 5 -9
14 -14 19 -10 5 3 9 2 8 -3 -2 -7 3 -48 16 -138 5 -28 3 -31 -27 -33 -18 -2
-33 -4 -35 -6 -2 -2 -29 3 -60 10 -32 7 -59 12 -60 10 -2 -2 32 -16 74 -31 43
-16 87 -34 97 -41 18 -12 18 -14 2 -20 -9 -4 -24 0 -34 9 -9 8 -57 27 -107 42
-49 15 -129 40 -176 56 -48 16 -92 29 -97 29 -6 0 -23 5 -38 11 -27 10 -21 13
96 59 193 76 314 119 324 116 6 -1 11 -7 13 -12z m68 -70 c4 -16 10 -38 15
-49 26 -61 49 -136 49 -161 0 -16 2 -41 4 -56 2 -15 0 -25 -4 -22 -5 3 -9 15
-10 27 0 20 -1 21 -8 3 -4 -11 -10 -15 -13 -10 -6 9 -68 313 -68 331 0 17 29
-36 35 -63z m1454 -16 c-17 -33 -67 -96 -113 -145 -22 -24 -37 -43 -33 -43 3
0 -15 -29 -41 -64 -26 -36 -55 -76 -65 -91 -11 -14 -21 -24 -25 -21 -3 3 2 14
10 23 8 10 30 45 48 78 35 63 78 122 120 164 16 16 20 26 12 29 -17 5 -4 22
17 22 10 0 31 16 45 35 31 40 42 46 25 13z m-1373 -37 c83 -83 290 -338 282
-347 -5 -5 -85 89 -136 159 -13 18 -58 70 -100 117 -42 47 -83 93 -91 103 -25
32 -4 17 45 -32z m988 33 c3 -8 2 -12 -4 -9 -6 3 -10 10 -10 16 0 14 7 11 14
-7z m-404 -14 c0 -5 -4 -10 -10 -10 -5 0 -10 5 -10 10 0 6 5 10 10 10 6 0 10
-4 10 -10z m673 -1 c-6 -6 -42 -18 -81 -28 -38 -10 -76 -22 -83 -27 -12 -6
-12 -5 0 9 7 9 21 17 30 18 9 0 39 9 66 19 60 21 84 25 68 9z m-277 -17 c-6
-11 4 -26 29 -41 l20 -13 -20 6 c-19 6 -19 5 -2 -8 9 -7 17 -21 17 -29 0 -21
-81 -187 -91 -187 -4 0 -11 9 -14 20 -3 11 -10 20 -15 20 -5 0 -6 17 -4 38 7
47 66 202 77 202 4 0 6 -4 3 -8z m-3070 -31 c-10 -16 -36 -13 -36 3 0 17 21
27 34 16 4 -5 5 -13 2 -19z m4084 25 c0 -6 -104 -36 -126 -36 -32 0 -6 12 53
25 71 16 73 16 73 11z m-639 -148 c-7 -68 -14 -147 -17 -175 -6 -63 -23 -81
-18 -20 l4 42 -28 -54 c-19 -39 -38 -60 -64 -73 -21 -11 -41 -17 -46 -14 -5 3
-17 32 -27 66 -14 46 -16 63 -7 72 7 7 12 20 12 31 0 11 4 15 12 11 8 -5 9 -2
5 10 -5 14 -3 17 8 13 8 -4 17 -1 21 5 4 7 9 7 14 -1 5 -9 10 -7 20 4 11 13
10 14 -5 9 -15 -6 -16 -4 -6 14 8 16 9 22 1 22 -6 0 -8 5 -5 10 4 6 11 7 17 4
7 -4 8 -2 4 5 -5 7 12 35 41 69 68 81 68 80 72 76 2 -2 -1 -59 -8 -126z m479
112 c0 -5 -66 -30 -147 -55 -82 -26 -158 -51 -171 -56 -25 -10 -46 -3 -37 12
4 5 16 9 28 10 12 0 87 22 167 49 162 54 160 54 160 40z m-1830 -65 c0 -5 -5
-3 -10 5 -5 8 -10 20 -10 25 0 6 5 3 10 -5 5 -8 10 -19 10 -25z m1106 24 c8
-13 -5 -26 -31 -31 -25 -4 -39 -22 -54 -70 -7 -21 -16 -38 -21 -38 -5 0 3 27
18 61 15 34 31 59 35 58 5 -2 13 4 18 14 11 19 25 22 35 6z m20 -15 c-5 -13
-1 -15 18 -10 18 4 25 1 29 -15 4 -13 10 -18 18 -13 8 4 10 3 5 -4 -4 -6 -14
-8 -23 -5 -12 5 -14 3 -8 -8 8 -12 6 -12 -8 0 -19 15 -23 26 -5 15 7 -4 8 -3
4 4 -12 20 -23 14 -40 -23 -15 -31 -19 -33 -36 -22 -11 6 -16 13 -10 15 5 2
10 8 10 14 0 9 41 66 49 67 2 1 0 -6 -3 -15z m-1077 -26 c20 -4 119 -125 137
-166 13 -32 11 -98 -5 -114 -14 -15 -65 8 -72 33 -10 36 -58 136 -58 123 -1
-6 6 -28 14 -47 8 -20 15 -42 14 -49 0 -7 -14 23 -30 66 -16 44 -27 86 -24 93
2 8 1 12 -4 9 -12 -8 -22 34 -14 62 5 19 7 20 17 8 6 -8 18 -16 25 -18z m787
-138 l102 -134 -16 -43 c-9 -24 -22 -43 -28 -43 -16 0 -176 98 -191 117 -7 9
-12 59 -12 133 0 119 0 119 22 111 12 -4 68 -68 123 -141z m2351 128 c-3 -8
-6 -5 -6 6 -1 11 2 17 5 13 3 -3 4 -12 1 -19z m-3303 -4 c5 -12 2 -15 -10 -10
-8 3 -18 6 -20 6 -3 0 -2 5 1 10 9 15 22 12 29 -6z m-1056 -29 c2 -1 -8 -2
-21 -2 -13 0 -24 5 -24 13 0 10 5 10 21 2 12 -6 22 -12 24 -13z m2227 -45 c-3
-5 -1 -10 5 -10 6 0 8 -4 5 -10 -11 -18 -34 -11 -32 10 1 11 7 20 15 20 7 0
10 -4 7 -10z m-50 -70 c3 -5 -1 -10 -10 -10 -9 0 -13 5 -10 10 3 6 8 10 10 10
2 0 7 -4 10 -10z m-794 -17 c13 -16 12 -17 -3 -4 -17 13 -22 21 -14 21 2 0 10
-8 17 -17z m2986 -45 c-2 -13 -4 -5 -4 17 -1 22 1 32 4 23 2 -10 2 -28 0 -40z
m416 -2 c-15 -13 -30 -22 -32 -20 -7 7 31 44 46 44 8 0 2 -10 -14 -24z m-2505
-49 c16 -45 16 -47 -11 -47 -20 0 -101 -18 -162 -37 -19 -5 -19 -4 -4 13 9 11
19 31 23 45 5 23 15 29 63 42 80 21 78 21 91 -16z m2085 -34 c-10 -163 -61
-458 -93 -537 -12 -30 -12 2 0 44 26 88 70 339 76 427 3 54 7 104 10 111 8 26
10 10 7 -45z m-2603 25 c20 3 14 -4 -28 -33 -51 -35 -78 -41 -54 -12 7 8 8 17
4 21 -10 11 29 37 42 28 6 -3 22 -5 36 -4z m83 -139 c-5 -5 -47 -18 -93 -30
-71 -18 -92 -19 -128 -10 -23 6 -54 11 -68 11 -23 0 -134 28 -143 36 -1 1 0 7
3 13 4 6 31 2 74 -10 74 -22 180 -31 188 -17 3 5 0 15 -6 23 -10 12 -9 16 6
22 10 3 52 31 93 61 l76 54 3 -72 c2 -40 -1 -77 -5 -81z m133 90 c89 -59 93
-60 131 -50 48 14 76 14 68 1 -3 -6 1 -7 9 -4 9 3 13 10 10 15 -3 5 3 10 13
10 10 1 33 3 52 5 32 4 71 -16 71 -36 0 -11 -40 -24 -160 -55 -58 -15 -109
-28 -115 -30 -5 -1 -26 4 -45 11 -19 7 -55 18 -80 24 -25 7 -50 16 -56 21 -10
8 -12 81 -5 142 2 14 15 7 107 -54z m-1466 -24 c0 -1 -14 -12 -31 -24 -29 -21
-31 -16 -8 15 7 8 39 16 39 9z m-235 -15 c-11 -5 -27 -9 -35 -9 -9 0 -8 4 5 9
11 5 27 9 35 9 9 0 8 -4 -5 -9z m135 -4 l33 -13 -34 -7 c-52 -9 -210 -12 -216
-3 -2 4 -1 7 4 5 4 -1 37 2 72 6 48 6 65 5 71 -5 7 -10 13 -10 32 -1 l23 12
-24 -6 c-15 -4 -21 -2 -17 4 4 6 -7 12 -26 15 -30 3 -29 4 8 5 23 1 56 -4 74
-12z m2385 -38 c-51 -37 -109 -105 -139 -162 -25 -48 -35 -58 -82 -77 l-54
-21 -19 23 c-36 43 -4 130 57 157 48 20 255 101 262 101 3 0 -8 -9 -25 -21z
m-2280 2 c3 -5 -3 -10 -15 -10 -12 0 -18 5 -15 10 3 6 10 10 15 10 5 0 12 -4
15 -10z m2384 -23 c25 -19 70 -47 99 -62 37 -20 49 -32 42 -39 -8 -8 -13 -7
-19 3 -5 8 -16 11 -30 6 -15 -4 -21 -2 -21 8 0 9 -12 17 -30 19 -32 5 -35 1
-21 -21 5 -8 16 -11 24 -8 8 3 23 -3 33 -14 16 -17 16 -22 4 -29 -8 -6 -19
-10 -23 -10 -5 0 -6 -4 -3 -8 8 -13 -43 -62 -65 -62 -11 0 -22 7 -25 15 -4 8
-11 12 -16 9 -13 -8 -118 16 -118 27 0 4 5 11 10 14 6 3 10 1 10 -5 0 -7 7
-10 15 -6 8 3 15 1 15 -4 0 -6 9 -10 20 -10 11 0 17 5 15 13 -4 8 7 13 32 14
20 1 48 4 60 8 20 5 22 9 13 26 -6 11 -15 17 -20 14 -5 -3 -17 9 -26 27 -14
27 -14 31 -2 20 12 -10 18 -10 27 1 8 11 6 18 -8 31 -12 11 -21 14 -26 7 -9
-16 -25 -13 -19 3 3 8 0 17 -5 21 -11 6 -6 25 6 25 3 0 26 -15 52 -33z m-2309
7 c0 -2 -9 -4 -21 -4 -11 0 -18 4 -14 10 5 8 35 3 35 -6z m290 11 c0 -2 -20
-26 -45 -52 -25 -25 -45 -50 -45 -55 0 -4 -5 -8 -11 -8 -6 0 -23 -9 -39 -20
-15 -11 -30 -17 -33 -13 -4 3 14 19 39 35 24 17 61 50 82 74 33 39 52 53 52
39z m-570 -15 c10 -7 -2 -8 -40 -4 -30 4 -57 8 -59 10 -10 9 86 3 99 -6z m135
-20 c17 -11 26 -20 20 -20 -5 0 -23 9 -40 20 -16 11 -25 20 -20 20 6 0 24 -9
40 -20z m-1377 3 c-10 -2 -26 -2 -35 0 -10 3 -2 5 17 5 19 0 27 -2 18 -5z
m1338 -24 c8 -14 -10 -11 -32 6 -18 13 -18 14 4 8 12 -3 25 -9 28 -14z m1519
10 c66 -17 95 -31 95 -45 0 -18 -22 -17 -90 4 -35 11 -56 24 -58 35 -4 20 0
20 53 6z m-832 -72 c29 -13 66 -30 83 -37 37 -16 47 -30 72 -103 l20 -54 -37
8 c-20 4 -65 19 -101 32 l-64 25 -13 66 c-6 37 -14 77 -17 89 -3 12 -3 16 0 9
3 -7 29 -23 57 -35z m1142 23 c11 -18 -48 -38 -90 -30 -39 7 -39 7 -15 17 53
22 96 28 105 13z m-661 -21 c13 -12 5 -18 -30 -25 -22 -4 -36 0 -54 16 -14 12
-20 19 -13 16 6 -4 15 -1 18 4 7 12 63 4 79 -11z m1302 -10 c28 -31 12 -30
-25 1 -25 22 -29 27 -13 23 11 -3 28 -14 38 -24z m-586 7 c0 -8 -68 -46 -81
-46 -8 1 6 12 31 25 50 27 50 27 50 21z m-791 -55 c-6 -2 -18 4 -27 13 -15 15
-15 15 10 4 15 -7 23 -15 17 -17z m676 -1 c-16 -6 -55 3 -55 13 0 2 17 1 38
-1 29 -4 33 -6 17 -12z m-628 -6 c-3 -3 -12 -4 -19 -1 -8 3 -5 6 6 6 11 1 17
-2 13 -5z m-50 -55 c50 -9 68 -17 88 -41 14 -16 25 -33 25 -37 0 -15 -140 -22
-181 -9 -51 15 -74 52 -50 79 19 21 36 22 118 8z m826 -2 c29 -2 21 -43 -14
-68 -40 -28 -91 -39 -150 -32 -54 6 -66 23 -43 58 9 13 13 29 10 34 -7 11 98
21 149 14 17 -2 38 -5 48 -6z m998 -20 c-10 -9 -11 -8 -5 6 3 10 9 15 12 12 3
-3 0 -11 -7 -18z m-477 -10 c43 -12 46 -15 25 -20 -37 -10 -85 -8 -116 5 -38
16 -39 18 -23 28 16 10 42 7 114 -13z m-3878 -13 c-20 -19 -20 -25 -1 -18 8 4
15 3 15 0 0 -9 -71 -39 -77 -33 -6 6 56 67 68 67 6 0 3 -7 -5 -16z m5464 1 c0
-8 -7 -15 -15 -15 -8 0 -15 7 -15 15 0 8 7 15 15 15 8 0 15 -7 15 -15z m-1764
-17 c25 -21 39 -23 127 -22 l99 1 -94 -48 c-51 -27 -95 -49 -98 -49 -9 0 45
34 89 56 49 25 34 32 -29 14 -18 -5 -36 -6 -39 -1 -4 4 -19 13 -36 18 -16 6
-29 15 -28 21 1 5 -5 9 -14 8 -9 0 -18 5 -20 12 -7 19 11 14 43 -10z m-1596
-19 c-19 -17 -48 -37 -65 -44 l-30 -14 29 -1 c16 0 51 13 77 30 27 16 49 26
49 20 0 -16 -88 -61 -122 -62 -71 -1 -187 15 -181 25 3 6 1 7 -5 3 -7 -4 -20
-3 -29 3 -16 8 -15 10 7 15 14 3 69 7 122 8 86 3 100 6 120 26 12 12 32 22 43
22 17 0 15 -5 -15 -31z m3024 16 c-4 -8 -11 -15 -16 -15 -6 0 -5 6 2 15 7 8
14 15 16 15 2 0 1 -7 -2 -15z m-769 -32 c65 -34 141 -127 173 -210 41 -107 65
-272 31 -210 -7 12 -22 17 -49 17 l-40 0 0 41 c0 60 -68 196 -124 247 -49 45
-117 66 -189 56 -31 -5 -53 -1 -78 11 -39 20 -91 60 -70 53 8 -2 38 1 65 9 78
19 232 12 281 -14z m-651 -9 c20 -3 33 -11 30 -16 -3 -5 -12 -7 -20 -4 -7 3
-16 1 -18 -3 -9 -13 -59 -10 -81 5 -18 13 -17 14 15 14 28 0 32 3 20 11 -13 9
-13 10 2 6 9 -3 33 -9 52 -13z m355 -49 l85 -50 -35 -7 c-19 -4 -81 -18 -139
-32 -58 -14 -123 -28 -145 -30 -22 -3 -53 -9 -69 -12 -21 -5 -27 -4 -22 5 4 6
19 11 33 11 24 0 25 1 10 18 -15 16 -15 19 2 29 10 7 27 10 37 8 11 -2 35 -6
54 -9 l35 -5 -34 17 c-75 37 -37 63 48 32 42 -15 51 -16 36 -5 -11 9 -30 18
-42 22 -13 3 -23 9 -23 14 0 12 27 11 51 -2 21 -11 59 -4 59 12 0 5 -13 12
-30 15 -16 4 -27 11 -24 16 8 13 19 9 113 -47z m-1239 41 c0 -2 -9 -6 -20 -9
-11 -3 -20 -1 -20 4 0 5 9 9 20 9 11 0 20 -2 20 -4z m80 -16 c0 -6 -15 -10
-34 -8 -19 1 -32 6 -30 10 8 12 64 10 64 -2z m-1069 -17 c16 -10 29 -23 29
-31 0 -8 -7 -6 -22 8 -28 26 -39 25 -62 -6 l-19 -26 42 6 c38 5 57 -6 29 -17
-7 -3 11 -6 41 -6 50 -1 53 -2 35 -16 -18 -14 -17 -14 12 -15 18 0 39 -8 49
-20 18 -19 17 -20 -2 -20 -12 0 -49 9 -84 20 -35 10 -111 30 -168 44 -102 25
-132 36 -97 36 17 0 41 9 116 43 46 21 66 21 101 0z m1109 -3 c-12 -8 -10 -10
7 -10 23 0 44 -20 21 -20 -7 0 -1 -10 15 -21 15 -11 27 -27 27 -35 0 -8 7 -14
15 -14 29 0 14 -16 -17 -18 -38 -3 -63 -24 -85 -69 -17 -36 -47 -44 -58 -15
-3 9 -6 19 -5 20 1 2 -13 17 -31 33 -22 20 -43 29 -66 29 -27 0 -34 5 -39 25
-7 28 10 55 35 55 14 0 14 2 1 11 -12 9 -11 10 8 6 13 -3 22 0 22 6 0 7 16 12
38 12 43 1 101 11 110 19 3 3 8 4 11 0 3 -3 -1 -9 -9 -14z m-1470 5 c0 -2 -22
-26 -48 -52 -83 -83 -134 -254 -102 -339 13 -33 6 -44 -9 -15 -6 11 -12 45
-13 75 -2 54 -3 55 -18 31 -8 -14 -23 -25 -32 -25 -10 0 -18 -6 -19 -12 0 -10
-2 -10 -6 0 -7 18 -23 4 -24 -21 0 -12 -3 -17 -5 -10 -9 21 36 175 66 228 25
44 122 162 106 130 -2 -6 4 -16 14 -23 16 -10 24 -8 47 13 26 23 43 31 43 20z
m81 -10 c34 -16 34 -16 4 -10 -16 4 -34 11 -39 16 -14 13 -3 11 35 -6z m662
-9 c-10 -13 -22 -22 -27 -19 -5 3 2 14 15 24 32 24 33 24 12 -5z m1237 4 c0
-11 -7 -20 -15 -20 -8 0 -15 -5 -15 -11 0 -13 42 -1 52 15 6 8 8 8 8 -1 0 -13
25 -12 37 2 4 4 3 5 -3 2 -6 -4 -19 0 -29 7 -17 12 -17 13 3 18 13 4 26 0 34
-9 7 -8 22 -19 35 -24 36 -14 28 -32 -11 -26 -28 4 -38 1 -58 -21 -22 -25 -51
-76 -52 -95 -1 -4 -8 -12 -16 -17 -12 -8 -9 -10 13 -10 18 0 27 5 27 15 0 17
47 65 63 65 13 0 -20 -51 -52 -77 -16 -14 -20 -23 -12 -23 8 0 23 7 33 17 10
9 21 14 24 11 3 -4 -8 -14 -25 -24 -17 -10 -31 -23 -32 -29 0 -5 -4 0 -9 12
-5 13 -15 21 -22 18 -18 -6 -52 21 -43 34 3 6 10 9 15 6 5 -3 12 0 16 7 4 7 3
10 -1 5 -5 -4 -25 8 -44 27 -20 19 -43 35 -51 36 -35 5 -71 -1 -65 -10 3 -5 1
-10 -4 -10 -6 0 -11 6 -11 14 0 8 -7 16 -15 20 -13 5 -14 2 -4 -15 15 -29 5
-35 -19 -11 -20 20 -20 20 0 42 11 12 27 19 35 16 8 -3 12 -2 9 3 -7 11 18 21
55 21 17 0 28 -5 27 -12 -5 -22 65 -9 89 17 12 12 19 26 16 29 -4 3 -1 6 5 6
7 0 12 -9 12 -20z m-2050 -6 c0 -8 -5 -12 -10 -9 -6 4 -8 11 -5 16 9 14 15 11
15 -7z m2205 6 c-3 -5 -10 -10 -16 -10 -5 0 -9 5 -9 10 0 6 7 10 16 10 8 0 12
-4 9 -10z m-1630 -25 c22 -9 51 -23 65 -30 14 -7 39 -16 56 -19 27 -6 91 -52
139 -99 9 -9 21 -17 27 -17 6 0 9 -3 5 -6 -8 -8 -347 181 -347 193 0 2 3 2 8
0 4 -2 25 -12 47 -22z m1719 4 c-3 -6 -15 -7 -26 -3 -15 5 -19 3 -13 -7 5 -8
5 -11 0 -7 -4 4 -14 3 -22 -3 -9 -8 -13 -8 -13 -1 0 15 51 41 67 35 7 -3 10
-9 7 -14z m-1214 -4 c0 -12 -19 -12 -23 0 -4 9 -1 12 9 8 7 -3 14 -7 14 -8z
m1190 -41 c-30 -20 -65 -45 -77 -57 -13 -11 -23 -15 -23 -9 0 7 18 25 40 41
21 15 36 32 32 36 -4 5 -2 6 3 2 6 -3 21 1 35 9 50 27 43 13 -10 -22z m-3503
20 c-3 -3 -12 -4 -19 -1 -8 3 -5 6 6 6 11 1 17 -2 13 -5z m2403 -14 c0 -5 -4
-10 -10 -10 -5 0 -10 5 -10 10 0 6 5 10 10 10 6 0 10 -4 10 -10z m-176 -6 c22
-8 2 -34 -26 -34 -10 0 -17 -4 -14 -9 3 -5 0 -11 -8 -14 -18 -7 -28 31 -13 49
13 14 36 18 61 8z m169 -15 c21 0 21 -1 3 -8 -14 -5 -16 -10 -7 -15 6 -4 19
-5 28 -2 12 5 14 1 9 -19 -9 -34 7 -32 21 3 l11 27 1 -25 c1 -15 -4 -31 -11
-38 -9 -9 -9 -12 0 -12 6 0 16 9 22 20 10 19 12 18 56 -10 25 -15 64 -32 87
-35 49 -8 67 -21 67 -45 0 -10 7 -23 15 -30 11 -9 12 -16 5 -25 -8 -9 -8 -14
0 -17 7 -2 3 -14 -10 -31 -19 -24 -28 -27 -83 -27 -72 1 -90 12 -130 81 -23
39 -25 48 -12 53 8 3 15 11 15 17 0 7 -3 10 -6 7 -3 -4 -31 22 -62 55 -31 34
-60 63 -64 63 -18 3 -19 4 -13 15 4 6 14 8 22 5 8 -3 24 -6 36 -7z m-318 -27
c-3 -3 -11 0 -18 7 -9 10 -8 11 6 5 10 -3 15 -9 12 -12z m-1491 -37 c-10 -8
-23 -14 -29 -14 -5 0 -1 6 9 14 11 8 24 15 30 15 5 0 1 -7 -10 -15z m1530 0
c3 -8 12 -12 21 -9 8 3 15 2 15 -3 0 -16 -29 -11 -47 9 -9 10 -11 18 -6 18 6
0 13 -7 17 -15z m511 5 c3 -6 -1 -7 -9 -4 -18 7 -21 14 -7 14 6 0 13 -4 16
-10z m210 0 c-3 -5 -15 -10 -26 -10 -11 0 -17 5 -14 10 3 6 15 10 26 10 11 0
17 -4 14 -10z m108 -18 c-7 -4 -16 -24 -19 -42 -6 -29 -4 -33 7 -22 22 21 28
13 16 -23 -6 -20 -22 -47 -36 -61 -21 -21 -23 -27 -11 -35 12 -7 12 -9 -3 -9
-11 0 -31 -9 -47 -20 -23 -17 -33 -18 -59 -9 -37 13 -51 35 -51 79 0 66 50
110 128 110 11 0 30 9 43 20 13 10 29 19 34 20 6 0 4 -4 -2 -8z m201 -17 c-4
-8 -8 -15 -10 -15 -2 0 -4 7 -4 15 0 8 4 15 10 15 5 0 7 -7 4 -15z m891 -15
c3 -5 18 -7 34 -4 21 4 30 1 35 -11 3 -10 4 -20 1 -23 -3 -3 -5 0 -5 6 0 16
-15 15 -32 0 -7 -7 -26 -14 -43 -15 l-30 -2 25 19 c20 16 22 20 8 20 -10 0
-18 5 -18 10 0 13 17 13 25 0z m141 -52 c6 -43 5 -46 -14 -42 -24 7 -37 57
-21 86 15 28 27 12 35 -44z m845 -90 c-69 -163 -239 -456 -264 -457 -9 -1 -2
10 74 125 80 120 131 221 124 244 -4 14 -2 20 6 18 8 -2 33 42 63 109 27 62
52 111 54 108 2 -2 -24 -68 -57 -147z m329 102 c0 -5 -4 -10 -10 -10 -5 0 -10
5 -10 10 0 6 5 10 10 10 6 0 10 -4 10 -10z m-581 -14 c-15 -13 -49 -25 -49
-17 0 5 8 12 18 14 24 6 36 8 31 3z m-909 -26 c0 -5 -5 -10 -11 -10 -5 0 -7 5
-4 10 3 6 8 10 11 10 2 0 4 -4 4 -10z m-116 -36 c3 -8 2 -12 -4 -9 -6 3 -10
10 -10 16 0 14 7 11 14 -7z m-2174 -34 c0 -5 -2 -10 -4 -10 -3 0 -8 5 -11 10
-3 6 -1 10 4 10 6 0 11 -4 11 -10z m2075 0 c-3 -5 -11 -10 -16 -10 -6 0 -7 5
-4 10 3 6 11 10 16 10 6 0 7 -4 4 -10z m37 -52 c-6 -6 -15 -8 -19 -4 -4 4 -1
11 7 16 19 12 27 3 12 -12z m-2632 -43 c0 -5 -5 -3 -10 5 -5 8 -10 20 -10 25
0 6 5 3 10 -5 5 -8 10 -19 10 -25z m30 20 c0 -12 -19 -12 -23 0 -4 9 -1 12 9
8 7 -3 14 -7 14 -8z m2504 1 c-3 -8 4 -24 16 -36 11 -11 23 -34 27 -50 3 -17
9 -30 14 -30 15 0 10 -17 -7 -24 -10 -4 -13 -2 -8 6 5 8 -2 9 -22 4 -27 -6
-28 -5 -10 9 26 20 15 29 -17 14 -22 -10 -24 -15 -16 -36 9 -25 -3 -63 -21
-63 -6 0 -10 -7 -10 -15 0 -8 -4 -15 -10 -15 -17 0 -11 22 12 47 12 13 18 26
14 30 -4 4 -11 1 -15 -6 -5 -7 -13 -11 -19 -7 -6 3 -14 1 -18 -5 -5 -8 -3 -9
6 -4 10 6 12 4 7 -9 -4 -10 -7 -22 -7 -27 0 -6 -4 -7 -10 -4 -5 3 -10 0 -11
-7 0 -10 -2 -10 -6 0 -2 6 -9 12 -14 12 -15 0 -10 -22 7 -35 15 -10 15 -12 1
-18 -29 -11 -30 39 -2 81 14 20 25 42 25 49 0 7 4 13 9 13 12 0 31 56 23 66
-4 4 -1 3 7 -1 11 -6 13 -4 8 8 -4 10 -2 16 5 14 6 -1 13 4 16 12 3 9 0 11 -9
7 -8 -4 -3 2 10 13 27 25 32 26 25 7z m-1737 -2 c-3 -3 -12 -4 -19 -1 -8 3 -5
6 6 6 11 1 17 -2 13 -5z m1909 -34 c0 -22 -4 -40 -8 -40 -5 0 -8 18 -8 40 0
22 4 40 9 40 5 0 8 -18 7 -40z m-1966 6 c0 -11 -19 -15 -25 -6 -3 5 1 10 9 10
9 0 16 -2 16 -4z m1985 -6 c3 -5 1 -10 -4 -10 -6 0 -11 5 -11 10 0 6 2 10 4
10 3 0 8 -4 11 -10z m-1138 -26 c-3 -3 -12 -4 -19 -1 -8 3 -5 6 6 6 11 1 17
-2 13 -5z m-910 -41 c-3 -10 -5 -4 -5 12 0 17 2 24 5 18 2 -7 2 -21 0 -30z
m957 -4 c5 -4 -8 -6 -29 -4 -20 2 -42 8 -49 15 -8 9 -1 10 29 5 22 -4 44 -11
49 -16z m-814 1 c0 -5 -4 -10 -10 -10 -5 0 -10 5 -10 10 0 6 5 10 10 10 6 0
10 -4 10 -10z m40 0 c-19 -13 -30 -13 -30 0 0 6 10 10 23 10 18 0 19 -2 7 -10z
m1880 0 c0 -5 -4 -10 -10 -10 -5 0 -10 5 -10 10 0 6 5 10 10 10 6 0 10 -4 10
-10z m-3900 -24 c0 -3 -4 -8 -10 -11 -5 -3 -10 -1 -10 4 0 6 5 11 10 11 6 0
10 -2 10 -4z m-36 -16 c-6 -6 -25 -15 -44 -20 -40 -11 -31 0 13 17 41 15 43
15 31 3z m871 -142 c131 -198 356 -451 386 -433 8 5 10 4 5 -3 -11 -17 9 -15
24 3 7 8 18 15 25 15 16 0 47 35 38 43 -3 4 2 7 12 7 11 0 29 12 40 26 18 23
24 25 43 15 12 -6 22 -15 22 -19 0 -4 -28 -22 -62 -40 -35 -18 -85 -44 -111
-59 l-49 -27 -41 45 c-23 24 -61 66 -84 92 -23 26 -48 46 -55 45 -7 -2 -13 5
-13 14 0 9 -15 32 -33 51 -64 66 -258 357 -238 357 2 0 43 -60 91 -132z m3046
89 c-8 -19 -7 -27 1 -27 7 0 9 -13 5 -34 -4 -28 -2 -35 13 -39 17 -4 18 -10
10 -37 -5 -18 -7 -37 -4 -41 6 -11 -17 -12 -32 -1 -6 4 -14 15 -17 26 -4 10
-13 16 -21 13 -8 -3 -17 -1 -20 6 -2 7 -5 4 -5 -6 -1 -14 4 -17 19 -12 21 7
28 -10 8 -18 -7 -2 -1 -8 15 -12 17 -4 27 -14 27 -25 0 -25 -16 -34 -24 -14
-6 15 -8 15 -31 0 -24 -16 -25 -16 -25 6 -1 22 -1 22 -15 4 -13 -18 -15 -18
-15 -3 0 10 7 20 15 23 10 4 13 13 10 25 -3 10 1 51 9 92 18 88 25 107 37 107
11 0 12 -13 0 -25 -4 -6 -11 -25 -15 -44 -6 -33 -5 -34 13 -17 10 9 22 35 25
58 5 28 10 38 17 31 6 -6 6 -19 0 -36z m-4011 13 c-8 -5 -19 -10 -25 -10 -5 0
-3 5 5 10 8 5 20 10 25 10 6 0 3 -5 -5 -10z m1830 -60 c0 -5 -4 -10 -10 -10
-5 0 -10 5 -10 10 0 6 5 10 10 10 6 0 10 -4 10 -10z m1920 -6 c0 -8 -4 -12
-10 -9 -5 3 -10 10 -10 16 0 5 5 9 10 9 6 0 10 -7 10 -16z m-76 -10 c3 -8 1
-24 -4 -35 -14 -25 -20 -24 -13 1 3 11 0 20 -6 20 -5 0 -8 7 -5 15 8 19 20 19
28 -1z m-1376 -21 c-6 -7 -12 -13 -13 -13 -2 0 -5 6 -8 13 -3 7 3 13 14 13 13
0 15 -3 7 -13z m1435 -13 c-6 -23 -22 -37 -19 -18 2 14 15 38 21 38 2 0 1 -9
-2 -20z m-2144 -23 c5 -13 16 -29 25 -36 9 -7 20 -32 26 -55 15 -58 47 -166
81 -270 31 -96 38 -149 17 -128 -18 18 -49 14 -75 -10 -13 -12 -26 -19 -29
-15 -4 3 -15 46 -25 95 -18 92 -69 232 -120 334 -16 32 -29 60 -29 62 0 3 16
8 35 12 19 3 39 12 46 20 17 21 38 17 48 -9z m552 -41 c25 -54 24 -59 -11 -84
l-30 -23 -25 58 c-14 31 -23 64 -19 72 5 14 7 14 13 -1 5 -14 9 -15 25 -3 10
8 15 19 10 26 -5 8 -3 10 5 4 7 -4 22 -26 32 -49z m2272 30 c9 -7 17 -19 17
-27 0 -18 -48 -168 -61 -192 -8 -15 -6 -22 8 -33 17 -14 17 -14 -3 -5 -18 9
-23 6 -33 -15 -13 -29 -66 -225 -87 -322 -7 -34 -16 -67 -19 -72 -7 -11 -56
-147 -106 -289 -39 -114 -52 -141 -66 -141 -6 0 -13 12 -15 28 -2 21 -8 27
-27 27 -17 0 -25 7 -27 23 -2 13 1 21 8 19 6 -1 12 11 13 28 2 17 16 60 32 95
17 36 34 76 38 90 4 14 25 67 46 118 37 87 40 100 45 220 5 117 7 129 29 151
15 15 38 69 61 140 59 184 51 171 93 171 20 0 44 -7 54 -14z m-333 -5 c0 -5
-7 -11 -15 -15 -15 -5 -20 5 -8 17 9 10 23 9 23 -2z m152 -43 c-7 -7 -12 -8
-12 -2 0 14 12 26 19 19 2 -3 -1 -11 -7 -17z m-142 3 c0 -5 -7 -12 -16 -15
-14 -5 -15 -4 -4 9 14 17 20 19 20 6z m-3082 -98 c-26 -32 -48 -35 -68 -11
-24 29 -25 47 -2 55 9 4 21 13 25 20 7 11 14 7 33 -18 18 -25 21 -35 12 -46z
m2830 7 c-11 -33 -22 -60 -25 -60 -4 0 -78 56 -101 77 -7 7 -10 18 -6 24 5 8
10 6 16 -5 7 -13 13 -14 29 -5 19 9 20 8 14 -10 -5 -17 -3 -20 11 -14 13 5 15
3 9 -7 -5 -8 -4 -11 3 -6 6 4 8 14 5 23 -4 11 -3 14 5 9 7 -4 12 -15 12 -24 1
-10 10 0 21 21 11 20 21 37 24 37 2 0 -5 -27 -17 -60z m242 44 c0 -8 -4 -12
-10 -9 -5 3 -10 10 -10 16 0 5 5 9 10 9 6 0 10 -7 10 -16z m-3177 -18 c4 -10
1 -13 -9 -9 -15 6 -19 23 -5 23 5 0 11 -7 14 -14z m372 -6 c-3 -5 -11 -10 -16
-10 -6 0 -7 5 -4 10 3 6 11 10 16 10 6 0 7 -4 4 -10z m2650 0 c3 -5 1 -10 -4
-10 -6 0 -11 5 -11 10 0 6 2 10 4 10 3 0 8 -4 11 -10z m830 -20 c-10 -11 -23
-20 -28 -20 -6 0 0 11 13 25 27 29 42 25 15 -5z m-725 3 c0 -5 -3 -18 -6 -30
-6 -22 -7 -22 -30 -5 -33 24 -30 42 6 42 17 0 30 -3 30 -7z m891 -20 c-40 -55
-80 -98 -81 -87 0 16 84 113 98 114 2 0 -6 -12 -17 -27z m-4088 3 c4 -10 0
-12 -14 -9 -10 3 -16 9 -13 14 8 13 21 11 27 -5z m101 -12 c18 -25 18 -26 0
-39 -11 -7 -30 -22 -43 -34 -29 -25 -32 -26 -25 -6 4 8 10 15 16 15 5 0 6 4 3
10 -3 6 1 7 12 4 15 -5 15 -4 -1 7 -15 9 -21 9 -24 1 -4 -14 -32 -16 -32 -4 0
11 70 33 82 26 4 -3 8 -1 8 4 0 5 -9 12 -20 15 -11 3 -20 10 -20 16 0 20 25
11 44 -15z m3008 4 c-11 -11 -32 -3 -32 12 0 4 9 6 21 3 13 -4 17 -9 11 -15z
m-59 -8 c-3 -12 -8 -19 -11 -16 -5 6 5 36 12 36 2 0 2 -9 -1 -20z m1681 -14
c-16 -14 -42 -26 -58 -26 -16 0 -36 -8 -45 -18 -9 -9 -25 -24 -35 -32 -16 -12
-15 -8 5 22 13 21 31 38 40 38 26 0 80 26 72 34 -4 4 0 4 9 1 9 -4 19 -1 23 5
4 6 9 9 12 6 3 -3 -8 -16 -23 -30z m-4669 6 c-3 -3 -11 0 -18 7 -9 10 -8 11 6
5 10 -3 15 -9 12 -12z m325 -12 c0 -5 -4 -10 -10 -10 -5 0 -10 5 -10 10 0 6 5
10 10 10 6 0 10 -4 10 -10z m3630 0 c0 -5 -5 -10 -11 -10 -5 0 -7 5 -4 10 3 6
8 10 11 10 2 0 4 -4 4 -10z m-851 -45 c0 -5 -4 -3 -9 5 -5 8 -9 22 -9 30 0 16
17 -16 18 -35z m-3871 18 c-10 -2 -26 -2 -35 0 -10 3 -2 5 17 5 19 0 27 -2 18
-5z m201 3 c-10 -9 -69 -36 -69 -32 0 7 52 35 64 36 5 0 7 -2 5 -4z m776 -6
c3 -5 -1 -10 -9 -10 -9 0 -16 5 -16 10 0 6 4 10 9 10 6 0 13 -4 16 -10z m2808
3 c-7 -2 -19 -2 -25 0 -7 3 -2 5 12 5 14 0 19 -2 13 -5z m1822 -24 c3 -4 1
-11 -5 -14 -11 -7 -40 11 -40 25 0 10 38 1 45 -11z m-5035 1 c0 -5 -2 -10 -4
-10 -3 0 -8 5 -11 10 -3 6 -1 10 4 10 6 0 11 -4 11 -10z m300 0 c0 -5 -4 -10
-10 -10 -5 0 -10 5 -10 10 0 6 5 10 10 10 6 0 10 -4 10 -10z m3047 4 c-3 -3
-12 -4 -19 -1 -8 3 -5 6 6 6 11 1 17 -2 13 -5z m-3797 -19 c0 -2 -10 -9 -22
-15 -22 -11 -22 -10 -4 4 21 17 26 19 26 11z m3352 -67 l43 -33 -19 30 -19 30
25 -22 c13 -13 31 -23 39 -23 9 0 69 -42 135 -93 112 -88 120 -97 141 -153 24
-64 27 -84 16 -84 -5 0 -40 28 -79 63 -39 34 -104 87 -145 117 -40 30 -106 86
-146 124 -61 58 -71 72 -60 84 10 13 9 15 -7 9 -16 -6 -17 -5 -6 8 11 14 14
13 26 -4 8 -11 33 -34 56 -53z m1128 62 c0 -5 -4 -10 -10 -10 -5 0 -10 5 -10
10 0 6 5 10 10 10 6 0 10 -4 10 -10z m1030 2 c0 -4 -10 -13 -22 -21 -23 -14
-23 -14 -4 8 20 22 26 25 26 13z m-5710 -17 c-7 -8 -20 -15 -28 -15 -13 0 -12
3 4 15 25 19 40 19 24 0z m32 -5 c-12 -11 -25 -20 -29 -20 -9 1 36 40 45 40 3
0 -4 -9 -16 -20z m613 10 c3 -5 -1 -10 -10 -10 -9 0 -13 5 -10 10 3 6 8 10 10
10 2 0 7 -4 10 -10z m3315 -5 c7 -9 8 -15 2 -15 -5 0 -12 7 -16 15 -3 8 -4 15
-2 15 2 0 9 -7 16 -15z m-3180 -5 c0 -5 -7 -10 -15 -10 -8 0 -15 5 -15 10 0 6
7 10 15 10 8 0 15 -4 15 -10z m-170 -10 c0 -5 -4 -10 -10 -10 -5 0 -10 5 -10
10 0 6 5 10 10 10 6 0 10 -4 10 -10z m2733 -10 c3 -11 1 -20 -4 -20 -5 0 -9 9
-9 20 0 11 2 20 4 20 2 0 6 -9 9 -20z m-3233 -14 c-17 -15 -139 -84 -128 -71
8 9 130 84 138 85 2 0 -2 -6 -10 -14z m1590 -7 c0 -6 -4 -7 -10 -4 -5 3 -10
11 -10 16 0 6 5 7 10 4 6 -3 10 -11 10 -16z m2722 -32 c54 -26 102 -55 107
-65 6 -10 11 -12 11 -4 0 14 92 -29 119 -55 13 -14 13 -15 -9 -8 -23 7 -23 7
-6 -10 14 -14 15 -20 5 -26 -8 -4 -18 -4 -24 0 -5 4 -21 4 -35 0 -14 -4 -21
-7 -16 -8 5 -1 1 -10 -9 -21 -10 -11 -13 -20 -7 -20 7 0 12 4 12 10 0 15 41
33 52 22 6 -6 0 -15 -16 -26 -14 -9 -27 -15 -29 -14 -2 2 -11 -3 -20 -10 -12
-10 -17 -10 -23 -1 -5 9 -11 7 -20 -6 -8 -10 -17 -15 -21 -12 -4 4 -1 13 5 19
7 7 12 19 12 28 -1 11 -4 10 -12 -5 -12 -22 -30 -36 -37 -30 -2 3 2 11 9 20 8
9 9 15 2 15 -6 0 -15 -6 -19 -13 -4 -7 -25 -26 -45 -41 l-38 -28 -9 23 c-5 13
-10 18 -10 12 -1 -7 -5 -13 -10 -13 -4 0 -7 14 -5 30 2 17 -1 30 -7 30 -5 0
-9 6 -8 13 2 6 -3 32 -11 57 -12 42 -14 43 -21 20 -5 -16 -7 5 -5 57 2 74 17
119 35 110 3 -2 50 -25 103 -50z m248 -22 c-29 -30 -57 -52 -61 -50 -4 3 18
29 49 59 73 70 83 63 12 -9z m1083 54 c-18 -5 -35 -14 -38 -19 -3 -6 -18 -10
-33 -10 l-27 0 30 19 c17 11 46 19 65 19 l35 0 -32 -9z m-4497 -90 l27 -29
-36 -15 c-33 -14 -40 -13 -76 1 -46 18 -90 79 -71 98 8 8 9 6 5 -6 -4 -10 -3
-18 1 -18 15 1 60 40 47 40 -7 0 -13 5 -13 11 0 13 78 -42 116 -82z m483 77
c9 -11 8 -15 -4 -20 -10 -4 -14 -2 -9 5 4 6 0 15 -7 20 -8 5 -9 9 -3 9 6 0 17
-6 23 -14z m-935 -12 c8 -22 8 -24 -6 -24 -7 0 -24 -9 -38 -20 -27 -21 -40
-25 -40 -12 0 4 14 13 30 19 20 8 30 18 30 32 0 25 15 28 24 5z m2556 -5 c0
-6 -4 -7 -10 -4 -5 3 -10 11 -10 16 0 6 5 7 10 4 6 -3 10 -11 10 -16z m58 -4
c6 -14 28 -33 49 -43 21 -9 45 -25 55 -34 17 -17 32 -22 51 -19 4 1 10 -6 13
-14 3 -8 10 -12 15 -9 5 3 30 -13 56 -36 36 -31 51 -54 64 -94 9 -29 30 -79
47 -110 16 -31 27 -58 22 -61 -21 -13 -375 326 -382 367 -3 15 -1 25 3 22 14
-8 10 10 -6 32 -8 11 -15 14 -15 7 0 -7 -5 -13 -11 -13 -8 0 -8 5 1 15 17 21
25 19 38 -10z m-1878 -64 c10 -69 9 -77 -15 -128 -21 -44 -25 -63 -20 -101 5
-40 4 -45 -7 -31 -7 9 -19 14 -25 12 -8 -3 -13 4 -13 16 0 12 -4 21 -10 21 -5
0 -7 -6 -5 -13 3 -6 -4 -18 -15 -25 -12 -7 -20 -8 -20 -2 0 5 5 10 10 10 6 0
10 6 10 14 0 15 -48 28 -56 15 -3 -5 -12 -9 -20 -9 -8 0 -12 4 -9 10 3 5 0 7
-8 4 -8 -3 -18 -1 -21 4 -3 5 -29 8 -58 6 -29 -1 -41 0 -25 2 34 6 26 24 -11
24 -19 0 -23 3 -13 9 10 6 11 13 3 27 -8 14 -7 23 5 36 13 15 13 16 -6 11 -11
-3 -18 -9 -15 -14 3 -5 3 -9 0 -9 -3 0 -8 5 -11 10 -6 9 50 40 84 46 8 2 18 9
22 16 7 10 9 10 9 1 0 -7 5 -13 11 -13 6 0 8 7 5 16 -5 13 -2 15 14 11 12 -3
18 -1 14 5 -4 6 2 8 16 3 15 -5 20 -4 16 4 -4 6 25 26 71 50 43 21 79 38 80
37 2 -1 7 -35 13 -75z m1961 52 c13 -16 20 -25 15 -21 -5 4 -16 2 -25 -4 -14
-10 -14 -10 -3 2 10 12 9 18 -10 32 -13 10 -18 18 -12 18 6 0 21 -12 35 -27z
m1239 19 c0 -14 -49 -56 -57 -49 -3 4 -1 7 6 7 7 0 9 5 5 12 -4 6 -3 8 4 4 6
-3 13 3 17 14 6 19 25 28 25 12z m-3683 -28 c-3 -3 -12 -4 -19 -1 -8 3 -5 6 6
6 11 1 17 -2 13 -5z m3693 -19 c-10 -12 -10 -15 1 -15 10 0 10 -3 2 -11 -7 -7
-19 -9 -27 -6 -14 6 -13 10 6 32 23 26 40 27 18 0z m910 -15 c0 -5 -4 -10 -10
-10 -5 0 -10 5 -10 10 0 6 5 10 10 10 6 0 10 -4 10 -10z m-2253 -80 c7 0 18
-11 23 -25 5 -14 16 -25 23 -25 8 0 19 -22 27 -50 7 -27 15 -50 17 -50 3 0 14
5 26 12 l22 12 -25 6 c-19 4 -25 13 -25 32 -1 15 3 24 8 21 21 -13 92 -97 89
-106 -2 -5 4 -17 13 -27 10 -11 12 -20 6 -24 -12 -8 -11 -46 1 -63 5 -7 4 -14
-2 -18 -8 -5 -8 -12 2 -24 7 -10 -9 7 -37 36 -62 66 -81 70 -28 6 22 -27 66
-86 98 -133 32 -47 66 -94 76 -105 9 -11 33 -43 52 -72 40 -59 41 -103 2 -103
-21 0 -154 32 -185 44 -16 7 -104 143 -260 401 -117 193 -151 256 -126 236 10
-8 29 -37 42 -64 16 -31 30 -47 39 -43 7 2 16 -2 19 -11 4 -9 9 -13 13 -10 3
4 -2 18 -12 33 -13 20 -14 29 -5 38 10 8 14 8 18 -3 2 -7 12 -21 22 -30 26
-25 70 -61 74 -61 5 0 -29 67 -45 88 -8 9 -1 6 13 -7 36 -31 55 -23 24 10 -14
15 -22 29 -19 33 3 3 -1 8 -10 12 -15 5 -77 95 -77 110 0 3 21 -13 46 -35 26
-23 53 -41 61 -41z m1603 25 c56 -18 180 -82 173 -90 -5 -4 -3 -5 4 -1 6 3 26
-2 45 -13 18 -10 50 -24 71 -31 48 -15 49 -35 2 -27 -32 5 -35 4 -35 -19 0
-16 6 -24 18 -25 13 0 11 -3 -6 -10 -13 -5 -20 -13 -17 -19 3 -6 -1 -13 -9
-16 -9 -3 -16 -10 -16 -16 0 -5 5 -6 11 -2 8 4 9 -1 4 -16 -5 -15 -4 -20 4
-16 6 4 11 2 11 -4 0 -6 -35 -47 -78 -92 -61 -63 -85 -81 -108 -82 -18 -1 -28
-6 -26 -14 1 -8 -2 -11 -9 -6 -9 5 -10 2 -6 -10 4 -10 3 -15 -3 -11 -6 3 -13
-1 -16 -9 -3 -9 -12 -16 -19 -16 -7 0 -16 -7 -19 -16 -3 -8 -11 -12 -16 -9
-12 7 -7 31 17 82 8 17 12 40 9 50 -3 10 -1 25 4 33 7 12 10 11 16 -5 4 -11
14 -25 22 -31 13 -9 11 -12 -9 -18 -23 -7 -23 -8 -4 -15 11 -5 21 -7 23 -6 8
7 9 65 1 65 -6 0 -24 15 -41 33 -17 17 -28 24 -25 15 4 -12 2 -15 -9 -11 -10
3 -14 -2 -14 -18 0 -13 -5 -31 -11 -39 -8 -12 -9 -10 -4 7 3 13 7 80 7 150 1
129 -17 246 -46 305 l-14 27 46 -23 c26 -13 58 -27 72 -31z m16 30 c16 -8 37
-15 46 -15 9 0 20 -5 23 -10 4 -6 11 -7 17 -4 6 4 8 2 5 -3 -10 -16 25 -26 35
-11 7 10 9 9 5 -2 -2 -9 8 -20 26 -28 17 -7 28 -15 25 -17 -7 -8 -228 90 -228
101 0 8 18 4 46 -11z m-4092 -52 c-27 -62 -45 -183 -46 -303 -1 -63 -3 -108
-5 -98 -6 25 -29 29 -49 7 -17 -19 -17 -20 0 -13 11 4 21 1 27 -7 13 -20 11
-29 -6 -29 -19 0 -19 -27 -1 -71 26 -65 28 -79 12 -79 -8 0 -23 11 -34 25 -11
13 -21 22 -24 20 -3 -3 -5 1 -5 8 0 6 -4 20 -8 30 -5 11 -3 17 6 17 8 0 1 7
-15 15 -17 9 -37 14 -45 12 -10 -3 -8 -5 6 -6 22 -1 44 -21 23 -21 -7 0 -9 -7
-6 -17 9 -22 -109 83 -159 142 -35 42 -38 49 -24 58 15 9 15 15 3 51 -8 22
-13 45 -10 51 9 24 -9 36 -38 25 -28 -10 -50 -5 -41 10 3 5 22 14 43 21 35 11
183 79 337 154 39 18 71 34 72 34 1 1 -5 -15 -13 -36z m196 27 c12 -8 11 -10
-7 -10 -12 0 -25 5 -28 10 -8 13 15 13 35 0z m1864 -240 c14 -63 28 -135 32
-160 5 -46 15 -87 33 -150 6 -19 16 -55 23 -80 7 -25 21 -56 30 -70 9 -14 26
-64 36 -112 l20 -87 -115 -238 c-63 -131 -118 -242 -122 -246 -5 -4 -8 9 -9
30 -1 82 -4 1020 -3 1056 2 60 21 43 22 -20 1 -32 4 -47 6 -33 7 36 -8 175
-17 160 -5 -8 -9 -9 -14 -1 -4 6 -4 16 -1 21 3 6 1 10 -5 10 -6 0 -4 13 6 33
19 35 30 93 14 67 -9 -13 -11 -13 -20 0 -14 22 -12 40 5 40 8 0 15 8 16 18 1
19 23 -63 63 -238z m-2175 216 c-2 -2 -15 -9 -29 -15 -24 -11 -24 -11 -6 3 16
13 49 24 35 12z m4676 -42 c9 -15 12 -23 6 -20 -11 7 -35 46 -28 46 3 0 12
-12 22 -26z m-4301 -25 c-8 -14 -21 -11 -21 5 0 8 6 12 14 9 7 -3 10 -9 7 -14z
m3624 -51 c7 1 12 -11 12 -32 0 -19 5 -38 10 -41 6 -4 10 7 10 25 0 30 1 30
23 15 13 -8 26 -12 30 -9 29 29 18 -225 -13 -311 -26 -72 -27 -73 -43 -51 -8
11 -27 18 -50 19 -20 0 -37 5 -37 10 0 5 8 37 17 71 13 45 17 101 18 210 0 83
3 137 6 120 3 -16 10 -28 17 -26z m-208 12 c0 -5 -2 -10 -4 -10 -3 0 -8 5 -11
10 -3 6 -1 10 4 10 6 0 11 -4 11 -10z m-1562 -115 c23 -84 30 -100 47 -100 13
0 19 6 17 16 -1 10 7 19 20 22 25 7 38 1 38 -18 0 -8 9 -13 20 -12 15 1 18 6
13 22 -17 53 -32 120 -28 123 3 3 7 -1 10 -9 2 -8 18 -52 35 -99 17 -47 38
-106 47 -132 9 -27 20 -48 25 -48 13 0 11 8 -43 161 -66 187 -63 175 -44 183
13 5 16 2 11 -9 -3 -9 -2 -13 4 -10 5 3 14 -4 20 -15 6 -11 8 -20 4 -20 -3 0
9 -19 28 -42 19 -24 70 -101 112 -173 43 -71 100 -168 128 -214 l51 -84 -12
-91 c-6 -50 -14 -116 -17 -146 -3 -30 -9 -80 -12 -110 l-7 -55 -49 150 c-27
83 -52 152 -56 155 -4 3 -13 32 -20 65 -8 33 -17 65 -21 70 -4 6 -12 30 -19
55 -16 60 -43 120 -53 120 -5 0 -6 -8 -2 -17 19 -47 46 -131 65 -201 12 -42
34 -108 50 -147 34 -86 92 -266 87 -272 -12 -11 -320 232 -325 256 -2 9 -14
61 -27 116 -13 55 -26 123 -29 150 -3 28 -29 142 -56 254 -28 111 -50 208 -49
215 1 16 6 2 37 -109z m-2005 8 c-5 -90 4 -168 33 -303 5 -24 3 -26 -32 -27
-24 -1 -43 -8 -51 -19 -16 -21 -14 -23 -42 51 -17 43 -25 89 -28 162 -6 117 0
153 25 153 10 0 23 5 30 12 9 9 12 5 12 -21 0 -19 4 -30 10 -26 6 3 10 22 10
41 0 20 4 33 10 29 5 -3 12 6 16 20 11 45 13 27 7 -72z m3452 75 c20 3 24 1
19 -12 -4 -11 -2 -15 8 -11 8 3 26 -5 40 -18 13 -13 30 -21 35 -20 21 7 25
-19 6 -40 -39 -43 -35 -51 4 -14 27 25 43 35 48 27 4 -6 1 -19 -7 -28 -12 -15
-11 -16 5 -3 16 13 22 8 18 -13 -1 -5 3 -12 8 -16 7 -4 0 -24 -19 -53 -27 -43
-28 -47 -10 -47 28 0 26 -36 -6 -96 -28 -54 -152 -186 -166 -178 -5 3 -17 -1
-26 -9 -9 -8 -26 -17 -37 -20 -13 -3 -8 -5 13 -6 48 -2 31 -17 -21 -19 -24 -2
-73 -11 -108 -21 l-64 -18 98 3 c54 3 96 0 93 -4 -3 -5 -34 -10 -68 -11 -35
-1 -97 -9 -138 -17 -41 -9 -97 -18 -124 -21 -47 -5 -48 -4 -41 18 9 32 17 54
48 122 34 72 34 82 2 35 -14 -20 -25 -44 -25 -52 0 -8 -4 -18 -10 -21 -5 -3
-26 -39 -47 -80 -20 -41 -39 -72 -41 -70 -7 7 14 55 146 325 69 140 133 280
143 310 9 30 17 46 18 35 0 -11 -13 -58 -29 -104 -16 -47 -28 -86 -26 -88 5
-5 77 125 80 144 3 20 50 49 102 63 24 7 43 15 42 19 -1 15 4 25 8 15 3 -6 16
-9 29 -6z m-65 -8 c0 -5 -4 -10 -10 -10 -5 0 -10 5 -10 10 0 6 5 10 10 10 6 0
10 -4 10 -10z m-3190 -10 c0 -5 -2 -10 -4 -10 -3 0 -8 5 -11 10 -3 6 -1 10 4
10 6 0 11 -4 11 -10z m180 -4 c0 -2 -9 -6 -20 -9 -11 -3 -18 -1 -14 4 5 9 34
13 34 5z m3964 -81 c-10 -19 -26 -36 -37 -39 -11 -3 -16 -9 -12 -16 6 -9 10
-9 16 1 4 7 10 11 14 8 3 -3 -4 -18 -16 -33 -17 -22 -24 -24 -35 -15 -8 7 -13
18 -10 26 8 21 -2 15 -15 -8 -9 -17 -8 -20 2 -14 9 6 11 3 6 -9 -4 -10 -7 -22
-7 -27 0 -6 -4 -7 -10 -4 -5 3 -10 1 -10 -5 0 -6 -8 -9 -18 -6 -13 5 -19 1
-19 -10 0 -9 9 -19 19 -22 10 -2 18 -7 18 -11 0 -8 -147 -151 -175 -171 -11
-8 -4 3 15 23 32 35 33 38 17 54 -15 16 -13 20 36 73 89 96 161 182 191 229
25 39 29 43 38 27 7 -13 5 -27 -8 -51z m-3922 21 c28 -12 44 -29 63 -66 16
-31 30 -48 37 -44 7 4 8 3 4 -4 -9 -14 34 -93 46 -86 4 3 4 14 -2 24 -18 34
-62 162 -57 167 3 2 11 -13 17 -34 7 -21 61 -137 120 -258 125 -254 162 -336
156 -343 -3 -2 -24 33 -48 78 -56 108 -68 127 -68 114 0 -6 6 -30 14 -52 8
-22 12 -42 10 -45 -3 -3 2 -19 10 -36 9 -16 16 -32 16 -35 0 -8 -79 1 -165 18
-44 8 -99 15 -122 16 -25 0 -43 5 -43 11 0 8 21 10 68 7 37 -3 58 -2 47 2 -40
15 -101 30 -137 33 -49 5 -61 17 -17 18 l34 1 -32 9 c-18 5 -33 14 -33 20 0 6
-7 9 -15 5 -8 -3 -14 0 -12 7 1 7 -3 11 -9 10 -10 -2 -92 79 -136 135 -15 19
-48 111 -48 135 0 5 7 4 15 -3 27 -22 26 -5 -1 43 -21 38 -23 49 -12 60 7 8
22 12 33 9 18 -5 18 -4 6 12 -8 9 -11 20 -7 24 4 4 26 -13 48 -36 47 -51 61
-52 18 -1 -27 32 -42 77 -20 64 5 -3 18 2 30 12 19 16 19 18 3 24 -10 3 20 5
67 4 52 -2 99 -9 122 -19z m4421 3 c18 -20 17 -20 -5 -17 -12 2 -24 11 -26 21
-5 23 10 22 31 -4z m-5423 0 c0 -6 11 -25 25 -43 14 -18 25 -35 25 -38 0 -3
17 -23 38 -45 20 -22 69 -75 108 -119 65 -73 70 -82 58 -99 -12 -17 -11 -22
13 -48 21 -22 23 -27 8 -19 -23 12 -165 152 -165 163 0 3 9 9 20 12 24 6 17
36 -8 33 -9 -2 -25 5 -36 15 -10 10 -23 16 -27 14 -14 -9 -91 143 -84 165 7
21 25 28 25 9z m4850 -2 c0 -7 -7 -22 -15 -33 -13 -17 -13 -16 -3 14 13 34 18
40 18 19z m-4762 -68 c-3 -8 -7 -3 -11 10 -4 17 -3 21 5 13 5 -5 8 -16 6 -23z
m2057 -8 c0 -49 8 -57 39 -43 13 6 27 8 30 5 13 -13 6 -101 -9 -113 -20 -17
-19 -31 1 -23 22 8 44 -22 44 -60 0 -51 -91 -340 -113 -360 -29 -25 -358 -219
-363 -214 -3 2 2 17 11 33 8 16 41 94 74 175 68 168 197 449 212 464 7 6 6 -1
-1 -19 -16 -43 -7 -41 21 4 13 22 30 40 37 40 6 0 12 3 12 8 0 4 3 18 6 32 5
21 4 22 -6 10 -10 -13 -11 -12 -6 4 4 11 2 23 -5 26 -7 5 -9 19 -4 39 9 43 20
39 20 -8z m2815 -11 c-6 -12 -11 -76 -12 -152 0 -93 -3 -126 -10 -114 -6 10
-8 40 -6 67 3 26 1 52 -3 56 -10 10 5 129 22 168 9 22 13 26 16 13 2 -9 -1
-26 -7 -38z m-3585 -89 c25 -67 45 -125 45 -128 0 -4 -11 4 -25 17 -30 29 -41
21 -27 -19 16 -45 -4 -48 -28 -4 -19 36 -21 29 -5 -24 12 -41 -2 -24 -20 25
-10 26 -23 52 -30 57 -11 10 -55 116 -55 135 0 6 7 10 15 10 8 0 15 -4 15 -10
0 -15 16 -12 34 5 8 8 20 15 26 15 8 0 10 9 5 27 -14 55 6 14 50 -106z m1353
104 c-3 -3 -9 2 -12 12 -6 14 -5 15 5 6 7 -7 10 -15 7 -18z m-548 11 c0 -2 -7
-9 -15 -16 -13 -11 -14 -10 -9 4 5 14 24 23 24 12z m2797 -58 c-3 -8 -6 -5 -6
6 -1 11 2 17 5 13 3 -3 4 -12 1 -19z m-3034 -3 c-3 -9 -8 -14 -10 -11 -3 3 -2
9 2 15 9 16 15 13 8 -4z m2912 -15 c3 -5 1 -10 -4 -10 -6 0 -11 5 -11 10 0 6
2 10 4 10 3 0 8 -4 11 -10z m-3020 -18 c-15 -11 -39 -61 -32 -68 3 -3 16 13
29 35 13 22 26 41 31 41 11 0 8 -9 -13 -38 -26 -37 -37 -82 -19 -82 8 0 20 12
27 28 7 15 24 41 38 57 22 25 24 26 14 6 -7 -14 -30 -50 -51 -80 -22 -31 -39
-60 -39 -64 0 -5 -9 -21 -19 -35 -10 -15 -33 -55 -50 -89 -31 -60 -32 -61
-107 -89 -44 -16 -79 -23 -84 -18 -17 17 -35 104 -25 119 39 56 171 222 174
220 2 -2 -13 -26 -33 -53 -20 -27 -36 -52 -36 -54 0 -3 39 34 88 82 48 49 94
88 102 89 9 0 11 -2 5 -7z m3335 -18 c0 -8 -9 -14 -20 -14 -19 0 -27 19 -14
33 10 9 34 -4 34 -19z m-5170 -49 c0 -50 -13 -111 -19 -93 -10 27 -1 153 10
137 5 -8 9 -27 9 -44z m75 35 c3 -5 1 -10 -4 -10 -6 0 -11 5 -11 10 0 6 2 10
4 10 3 0 8 -4 11 -10z m335 -62 c0 -10 2 -10 8 0 6 8 9 2 9 -17 0 -22 -3 -26
-12 -18 -16 17 -26 47 -15 47 6 0 10 -6 10 -12z m4082 -10 c-7 -7 -12 -8 -12
-2 0 14 12 26 19 19 2 -3 -1 -11 -7 -17z m838 2 c0 -5 -2 -10 -4 -10 -3 0 -8
5 -11 10 -3 6 -1 10 4 10 6 0 11 -4 11 -10z m-2940 -50 c0 -5 -2 -10 -4 -10
-3 0 -8 5 -11 10 -3 6 -1 10 4 10 6 0 11 -4 11 -10z m-2715 -10 c-3 -5 -10
-10 -16 -10 -5 0 -9 5 -9 10 0 6 7 10 16 10 8 0 12 -4 9 -10z m2960 -9 c3 -5
1 -12 -5 -16 -5 -3 -10 1 -10 9 0 18 6 21 15 7z m2548 -151 c59 -57 103 -106
97 -108 -7 -3 -5 -11 6 -23 11 -12 13 -19 5 -19 -15 0 -9 -21 34 -114 58 -126
97 -218 93 -222 -3 -2 -12 15 -22 39 -47 108 -117 250 -121 245 -5 -4 56 -158
98 -248 6 -14 13 -29 15 -35 5 -13 -35 32 -42 48 -5 9 -7 9 -12 0 -3 -7 -10
-13 -16 -13 -7 0 -7 4 0 13 8 10 1 21 -29 46 -21 19 -39 41 -39 49 0 8 -3 12
-7 9 -3 -4 -17 25 -29 65 -13 39 -32 83 -42 97 -38 52 -52 91 -52 144 0 55
-12 77 -41 77 -10 0 -21 12 -27 28 -5 15 -13 36 -18 47 l-7 20 24 -20 c13 -11
72 -67 132 -125z m67 136 c0 -3 -4 -8 -10 -11 -5 -3 -10 -1 -10 4 0 6 5 11 10
11 6 0 10 -2 10 -4z m-5590 -26 c0 -5 -4 -10 -10 -10 -5 0 -10 5 -10 10 0 6 5
10 10 10 6 0 10 -4 10 -10z m322 -15 c-2 -14 -6 -25 -8 -25 -2 0 -4 11 -4 25
0 14 4 25 9 25 4 0 6 -11 3 -25z m1961 -10 c-3 -9 -8 -14 -10 -11 -3 3 -2 9 2
15 9 16 15 13 8 -4z m-2069 -39 c-10 -20 -25 -36 -34 -36 -29 0 -40 -23 -40
-85 0 -54 -4 -67 -35 -111 -36 -50 -65 -127 -65 -174 0 -31 -33 -66 -51 -54
-9 5 -10 2 -6 -9 3 -9 1 -19 -5 -23 -7 -5 -8 -2 -3 6 6 10 4 12 -8 7 -16 -6
-16 -4 -1 31 26 61 46 124 41 128 -2 3 -14 -20 -27 -50 -12 -30 -29 -61 -36
-67 -8 -7 1 23 21 66 19 42 35 79 35 81 0 2 8 1 18 -2 12 -4 13 -3 4 3 -10 8
-9 18 3 54 9 24 17 57 17 73 1 22 21 48 92 117 50 48 92 86 94 85 1 -2 -5 -20
-14 -40z m1936 7 c0 -5 -10 -19 -21 -33 l-21 -25 18 33 c18 32 24 38 24 25z
m3540 -23 c0 -5 -2 -10 -4 -10 -3 0 -8 5 -11 10 -3 6 -1 10 4 10 6 0 11 -4 11
-10z m-1132 -55 c-3 -3 -9 2 -12 12 -6 14 -5 15 5 6 7 -7 10 -15 7 -18z
m-3727 -32 c13 -16 12 -17 -3 -4 -10 7 -18 15 -18 17 0 8 8 3 21 -13z m3719
11 c0 0 -11 -13 -24 -28 -20 -24 -24 -26 -30 -11 -8 22 7 41 33 41 12 0 21 -1
21 -2z m715 -4 c-3 -5 -1 -10 4 -10 23 0 9 -20 -46 -61 -97 -74 -96 -74 -91
-58 3 8 1 22 -3 31 -9 16 16 41 91 90 28 19 54 23 45 8z m-4210 -65 l26 -40
-31 33 c-16 18 -30 37 -30 44 0 15 3 11 35 -37z m-613 -27 c22 -15 27 -26 26
-53 l-1 -35 -36 27 c-20 15 -42 33 -49 40 -8 7 -22 18 -33 23 -24 13 -25 32
-1 23 14 -5 15 -3 5 8 -39 41 5 25 89 -33z m878 42 c0 -5 -4 -10 -10 -10 -5 0
-10 5 -10 10 0 6 5 10 10 10 6 0 10 -4 10 -10z m-356 -55 c-4 -8 -11 -15 -16
-15 -6 0 -5 6 2 15 7 8 14 15 16 15 2 0 1 -7 -2 -15z m4434 -22 c-20 -5 -24
-33 -8 -49 7 -7 -7 -10 -42 -10 -42 1 -62 -5 -96 -27 -61 -40 -65 -25 -7 28
49 46 87 63 140 63 17 0 22 -2 13 -5z m-938 -38 c0 -5 -5 -3 -10 5 -5 8 -10
20 -10 25 0 6 5 3 10 -5 5 -8 10 -19 10 -25z m-3306 9 c3 -8 2 -12 -4 -9 -6 3
-10 10 -10 16 0 14 7 11 14 -7z m-829 -44 c31 -19 85 -80 71 -80 -4 0 -30 14
-59 30 -30 17 -62 30 -72 30 -15 0 -16 3 -7 12 18 18 15 28 -8 28 -11 0 -20 4
-20 9 0 13 53 -3 95 -29z m4500 30 c19 -8 19 -9 -4 -9 -17 -1 -21 -5 -17 -17
5 -13 -1 -14 -41 -8 -46 7 -78 25 -66 38 9 9 105 6 128 -4z m-3915 -40 c15 -5
18 -8 8 -9 -9 -1 -18 -5 -20 -11 -1 -5 -32 -12 -68 -15 -36 -2 -57 -2 -47 1 9
3 17 10 17 15 0 5 -8 9 -17 10 -15 0 -15 2 2 9 25 11 92 11 125 0z m2580 -10
c-8 -5 -19 -10 -25 -10 -5 0 -3 5 5 10 8 5 20 10 25 10 6 0 3 -5 -5 -10z
m2010 -85 c0 -8 -7 -15 -15 -15 -16 0 -20 12 -8 23 11 12 23 8 23 -8z m-4778
-12 c-6 -2 -9 -10 -6 -15 4 -6 2 -8 -4 -4 -13 8 -63 -14 -56 -25 6 -11 -10
-12 -20 -2 -7 7 71 52 89 52 6 0 4 -3 -3 -6z m4158 -163 c16 -33 30 -72 30
-88 0 -25 -3 -29 -24 -25 -24 5 -26 8 -56 129 -5 22 -28 67 -51 100 l-41 59
56 -58 c31 -31 69 -84 86 -117z m-4130 130 c0 -5 -7 -10 -15 -10 -8 0 -15 -6
-15 -12 0 -9 -4 -8 -10 2 -7 11 -4 17 13 22 12 3 23 6 25 7 1 1 2 -3 2 -9z
m4400 -30 c-5 -22 -8 -27 -9 -13 -1 21 9 56 14 51 2 -2 0 -19 -5 -38z m-4520
-60 c-32 -45 -41 -45 -17 -1 12 22 25 37 29 34 5 -2 -1 -17 -12 -33z m4519
-84 c28 -51 51 -96 51 -100 0 -9 -43 -7 -58 3 -7 4 -15 21 -17 37 -5 37 -22
115 -31 137 -3 9 -4 17 -1 17 3 0 28 -42 56 -94z m551 59 l25 -30 -27 24 c-16
14 -28 29 -28 34 0 6 1 8 3 6 1 -2 13 -17 27 -34z m-2230 15 c8 -5 11 -10 5
-10 -5 0 -17 5 -25 10 -8 5 -10 10 -5 10 6 0 17 -5 25 -10z m-3527 -45 c-10
-13 -22 -25 -27 -25 -5 0 1 11 14 25 30 32 36 32 13 0z m4819 -41 c20 -40 23
-54 13 -54 -24 0 -115 21 -115 27 0 7 64 81 70 82 3 0 17 -25 32 -55z m229 19
c30 -33 30 -35 3 -10 -17 15 -33 25 -36 22 -2 -3 -5 2 -5 10 0 8 1 15 2 15 0
0 17 -17 36 -37z m754 7 c3 -5 2 -10 -4 -10 -5 0 -13 5 -16 10 -3 6 -2 10 4
10 5 0 13 -4 16 -10z m-5815 -30 c0 -5 -2 -10 -4 -10 -3 0 -8 5 -11 10 -3 6
-1 10 4 10 6 0 11 -4 11 -10z m981 -26 c29 -31 30 -35 9 -24 -23 12 -24 12
-11 -4 18 -22 13 -26 -48 -33 -56 -6 -60 -3 -33 32 9 12 24 32 32 44 8 11 15
21 15 21 1 0 17 -16 36 -36z m4036 4 c-3 -8 -6 -5 -6 6 -1 11 2 17 5 13 3 -3
4 -12 1 -19z m-4494 -15 l-4 -28 16 28 c9 16 18 27 19 25 1 -1 0 -27 -2 -56
-3 -45 -7 -52 -21 -46 -9 4 -26 7 -39 7 -19 -1 -22 3 -16 21 11 35 34 76 43
76 4 0 6 -12 4 -27z m-585 -3 c7 -11 10 -20 6 -20 -7 0 -34 27 -34 34 0 13 16
5 28 -14z m62 -20 c0 -5 -2 -10 -4 -10 -3 0 -8 5 -11 10 -3 6 -1 10 4 10 6 0
11 -4 11 -10z m4017 -13 c11 -1 19 -5 17 -9 -2 -3 2 -9 8 -11 8 -3 4 -6 -7 -7
-29 -3 -49 1 -55 10 -3 5 -21 13 -40 19 -34 11 -34 11 10 5 25 -3 55 -7 67 -7z
m640 7 c-3 -3 -12 -4 -19 -1 -8 3 -5 6 6 6 11 1 17 -2 13 -5z m-3942 -14 c3
-5 1 -10 -4 -10 -6 0 -11 5 -11 10 0 6 2 10 4 10 3 0 8 -4 11 -10z m2635 -5
c19 -7 28 -14 20 -14 -8 0 -28 6 -45 14 -39 17 -21 18 25 0z m-2193 -11 c-3
-3 -12 -4 -19 -1 -8 3 -5 6 6 6 11 1 17 -2 13 -5z m1408 -4 c-3 -5 -12 -10
-18 -10 -7 0 -6 4 3 10 19 12 23 12 15 0z"/>
<path d="M2534 5493 c19 -79 28 -101 51 -128 34 -42 32 -13 -5 63 -16 34 -30
69 -30 77 0 8 -5 15 -11 15 -7 0 -9 -10 -5 -27z"/>
<path d="M1880 5600 c-8 -5 -12 -12 -9 -15 4 -3 12 1 19 10 14 17 11 19 -10 5z"/>
<path d="M1913 5580 c1 -21 12 -26 22 -10 3 6 1 10 -5 10 -6 0 -8 5 -5 10 3 6
2 10 -4 10 -5 0 -9 -9 -8 -20z"/>
<path d="M4586 5512 c-3 -5 1 -9 9 -9 8 0 12 4 9 9 -3 4 -7 8 -9 8 -2 0 -6 -4
-9 -8z"/>
<path d="M4556 5491 c-4 -7 -5 -15 -2 -18 9 -9 19 4 14 18 -4 11 -6 11 -12 0z"/>
<path d="M4477 5432 c-18 -19 -17 -58 1 -56 30 3 35 4 29 11 -4 3 -2 12 4 19
7 8 6 14 -2 20 -7 4 -10 3 -6 -2 3 -5 -1 -18 -9 -29 -13 -18 -14 -18 -14 6 0
14 5 30 12 37 7 7 10 12 7 12 -3 0 -13 -8 -22 -18z"/>
<path d="M3740 4274 c-25 -19 -62 -44 -82 -54 -21 -11 -37 -24 -37 -28 1 -4 0
-9 -1 -12 -6 -17 -7 -40 -1 -40 5 0 126 117 170 165 12 13 -9 0 -49 -31z"/>
<path d="M3177 4096 c-3 -8 -2 -18 3 -21 13 -8 24 15 12 27 -6 6 -11 4 -15 -6z"/>
<path d="M3465 4050 c-3 -6 1 -7 9 -4 18 7 21 14 7 14 -6 0 -13 -4 -16 -10z"/>
<path d="M2961 4524 c0 -11 3 -14 6 -6 3 7 2 16 -1 19 -3 4 -6 -2 -5 -13z"/>
<path d="M485 4760 c3 -5 8 -10 11 -10 2 0 4 5 4 10 0 6 -5 10 -11 10 -5 0 -7
-4 -4 -10z"/>
<path d="M2200 4220 c19 -16 42 -29 50 -29 13 -1 13 0 0 9 -8 5 -11 10 -5 10
5 0 -8 9 -30 20 -53 27 -55 25 -15 -10z"/>
<path d="M2621 4168 c13 -21 27 -38 32 -38 12 0 8 8 -24 42 l-31 33 23 -37z"/>
<path d="M2280 4176 c0 -2 7 -7 16 -10 8 -3 12 -2 9 4 -6 10 -25 14 -25 6z"/>
<path d="M2795 4080 c-4 -6 -11 -8 -16 -5 -5 4 -9 2 -9 -4 0 -5 8 -9 18 -8 10
0 19 7 19 14 0 16 -4 16 -12 3z"/>
<path d="M2485 4020 c7 -11 85 -53 85 -46 0 7 -73 56 -83 56 -4 0 -5 -5 -2
-10z"/>
<path d="M2580 3960 c0 -5 5 -10 11 -10 5 0 7 5 4 10 -3 6 -8 10 -11 10 -2 0
-4 -4 -4 -10z"/>
<path d="M2940 3876 c0 -8 -6 -16 -12 -19 -7 -2 -1 -6 15 -9 21 -4 27 -1 27
12 0 10 -7 20 -15 24 -9 3 -15 0 -15 -8z"/>
<path d="M2815 3990 c-3 -5 -1 -10 4 -10 6 0 11 5 11 10 0 6 -2 10 -4 10 -3 0
-8 -4 -11 -10z"/>
<path d="M3848 3673 c7 -3 16 -2 19 1 4 3 -2 6 -13 5 -11 0 -14 -3 -6 -6z"/>
<path d="M4000 3642 c0 -5 18 -13 41 -19 22 -6 37 -7 32 -3 -13 12 -73 30 -73
22z"/>
<path d="M1870 3579 c0 -5 5 -7 10 -4 6 3 10 8 10 11 0 2 -4 4 -10 4 -5 0 -10
-5 -10 -11z"/>
<path d="M3608 3418 c-13 -13 -17 -17 -7 -10 9 7 24 10 33 6 12 -5 15 -2 10
10 -8 20 -8 20 -36 -6z"/>
<path d="M3460 3246 c0 -8 5 -18 10 -21 6 -4 7 -11 4 -17 -4 -6 -2 -8 4 -5 11
8 5 44 -9 53 -5 3 -9 -2 -9 -10z"/>
<path d="M3390 3480 c0 -5 5 -10 10 -10 6 0 10 5 10 10 0 6 -4 10 -10 10 -5 0
-10 -4 -10 -10z"/>
<path d="M2321 3434 c0 -11 3 -14 6 -6 3 7 2 16 -1 19 -3 4 -6 -2 -5 -13z"/>
<path d="M3010 3426 c0 -9 5 -16 10 -16 6 0 10 4 10 9 0 6 -4 13 -10 16 -5 3
-10 -1 -10 -9z"/>
<path d="M3021 3344 c0 -11 3 -14 6 -6 3 7 2 16 -1 19 -3 4 -6 -2 -5 -13z"/>
<path d="M4077 2880 c-21 -25 -21 -30 -2 -30 8 0 14 4 13 9 -2 5 6 17 17 25
15 12 16 15 5 16 -9 0 -23 -9 -33 -20z"/>
<path d="M4140 2632 c0 -5 9 -17 20 -27 18 -16 20 -16 20 -2 0 9 -9 21 -20 27
-11 6 -20 7 -20 2z"/>
<path d="M3390 2596 c0 -2 9 -6 20 -9 11 -3 18 -1 14 4 -5 9 -34 13 -34 5z"/>
<path d="M3460 2557 c0 -7 9 -18 19 -24 17 -11 20 -10 18 6 -1 12 -6 17 -16
13 -9 -3 -12 -1 -7 6 4 7 2 12 -3 12 -6 0 -11 -6 -11 -13z"/>
<path d="M3510 2519 c0 -11 4 -18 10 -14 5 3 7 12 3 20 -7 21 -13 19 -13 -6z"/>
<path d="M2766 2466 c3 -8 12 -12 21 -9 12 5 12 7 1 14 -20 13 -28 11 -22 -5z"/>
<path d="M3818 2133 c-9 -10 -19 -29 -23 -43 -4 -14 -6 -23 -3 -20 2 3 16 22
31 43 28 37 24 52 -5 20z"/>
<path d="M4050 1890 c0 -5 5 -10 11 -10 5 0 7 5 4 10 -3 6 -8 10 -11 10 -2 0
-4 -4 -4 -10z"/>
<path d="M970 1770 c0 -5 5 -10 10 -10 6 0 10 5 10 10 0 6 -4 10 -10 10 -5 0
-10 -4 -10 -10z"/>
<path d="M3577 1613 c-3 -4 6 -16 19 -26 13 -10 24 -14 24 -9 0 14 -37 44 -43
35z"/>
<path d="M4393 1565 c-3 -9 -3 -18 -1 -21 3 -3 8 4 11 16 6 23 -1 27 -10 5z"/>
<path d="M4418 1547 c-7 -8 -20 -16 -28 -20 -13 -4 -12 -6 1 -6 9 -1 24 8 34
19 20 22 14 28 -7 7z"/>
<path d="M4410 1500 c0 -5 5 -10 10 -10 6 0 10 5 10 10 0 6 -4 10 -10 10 -5 0
-10 -4 -10 -10z"/>
<path d="M4400 1470 c0 -5 5 -10 10 -10 6 0 10 5 10 10 0 6 -4 10 -10 10 -5 0
-10 -4 -10 -10z"/>
<path d="M4565 1360 c-3 -5 -1 -10 4 -10 6 0 11 5 11 10 0 6 -2 10 -4 10 -3 0
-8 -4 -11 -10z"/>
<path d="M1586 1513 c5 -5 12 -12 16 -18 4 -6 8 -2 8 8 0 9 -7 17 -17 17 -9 0
-12 -3 -7 -7z"/>
<path d="M1606 1437 c3 -10 9 -15 12 -12 3 3 0 11 -7 18 -10 9 -11 8 -5 -6z"/>
<path d="M1342 1326 c7 -8 15 -12 17 -11 5 6 -10 25 -20 25 -5 0 -4 -6 3 -14z"/>
<path d="M3590 1309 c0 -5 5 -7 10 -4 6 3 10 8 10 11 0 2 -4 4 -10 4 -5 0 -10
-5 -10 -11z"/>
<path d="M3550 1255 c0 -5 10 -21 23 -35 12 -14 18 -20 14 -13 -5 6 -5 18 -1
24 4 7 3 9 -4 5 -6 -3 -15 2 -21 11 -6 10 -11 14 -11 8z"/>
<path d="M3645 1070 c3 -5 8 -10 11 -10 2 0 4 5 4 10 0 6 -5 10 -11 10 -5 0
-7 -4 -4 -10z"/>
<path d="M3680 1031 c0 -5 5 -13 10 -16 6 -3 10 -2 10 4 0 5 -4 13 -10 16 -5
3 -10 2 -10 -4z"/>
<path d="M906 1064 c-4 -9 -4 -19 -1 -22 2 -3 7 3 11 12 4 9 4 19 1 22 -2 3
-7 -3 -11 -12z"/>
<path d="M881 961 c-7 -5 -9 -11 -5 -14 5 -3 15 1 22 9 14 16 5 18 -17 5z"/>
<path d="M3033 855 c0 -22 2 -30 4 -17 2 12 2 30 0 40 -3 9 -5 -1 -4 -23z"/>
<path d="M4706 1003 c-6 -14 -5 -15 5 -6 7 7 10 15 7 18 -3 3 -9 -2 -12 -12z"/>
<path d="M4260 940 c0 -5 5 -10 10 -10 6 0 10 5 10 10 0 6 -4 10 -10 10 -5 0
-10 -4 -10 -10z"/>
<path d="M4249 897 c-9 -12 -20 -33 -24 -46 l-7 -24 21 20 c12 11 24 32 27 47
5 31 4 32 -17 3z"/>
<path d="M4606 813 c-20 -21 -36 -42 -36 -47 0 -5 10 1 22 15 12 13 30 34 41
47 33 36 12 25 -27 -15z"/>
<path d="M1720 909 c0 -5 5 -7 10 -4 6 3 10 8 10 11 0 2 -4 4 -10 4 -5 0 -10
-5 -10 -11z"/>
<path d="M1750 861 c0 -26 26 -56 35 -41 3 5 2 10 -4 10 -6 0 -8 6 -5 13 3 8
-2 20 -11 27 -13 11 -15 9 -15 -9z"/>
<path d="M1405 770 c10 -11 20 -20 23 -20 3 0 -3 9 -13 20 -10 11 -20 20 -23
20 -3 0 3 -9 13 -20z"/>
<path d="M2596 905 c-9 -26 -7 -32 5 -12 6 10 9 21 6 23 -2 3 -7 -2 -11 -11z"/>
<path d="M2487 664 c-33 -66 -34 -75 -4 -38 12 16 21 33 19 38 -2 4 4 16 13
26 9 10 12 20 7 23 -4 3 -20 -19 -35 -49z"/>
<path d="M4717 663 c-4 -3 -7 -11 -7 -17 0 -6 5 -5 12 2 6 6 9 14 7 17 -3 3
-9 2 -12 -2z"/>
<path d="M177 5982 c84 -67 146 -113 133 -100 -46 47 -132 118 -143 118 -6 0
-2 -8 10 -18z"/>
<path d="M5853 5958 c-27 -24 -61 -53 -76 -64 -15 -12 -27 -25 -27 -28 0 -5
154 107 179 130 2 2 -3 4 -12 4 -9 0 -38 -19 -64 -42z"/>
<path d="M2145 5920 c3 -5 8 -10 11 -10 2 0 4 5 4 10 0 6 -5 10 -11 10 -5 0
-7 -4 -4 -10z"/>
<path d="M4980 5890 c-19 -11 -30 -19 -24 -20 12 0 74 29 74 36 0 8 -15 3 -50
-16z"/>
<path d="M345 5850 c10 -11 20 -20 23 -20 3 0 -3 9 -13 20 -10 11 -20 20 -23
20 -3 0 3 -9 13 -20z"/>
<path d="M1240 5860 c8 -5 20 -10 25 -10 6 0 3 5 -5 10 -8 5 -19 10 -25 10 -5
0 -3 -5 5 -10z"/>
<path d="M4283 5823 c-3 -10 -8 -22 -11 -27 -3 -5 0 -6 6 -2 18 11 35 46 22
46 -6 0 -13 -8 -17 -17z"/>
<path d="M4854 5824 c-18 -14 -18 -15 4 -4 12 6 22 13 22 15 0 8 -5 6 -26 -11z"/>
<path d="M3965 5810 c-3 -5 -1 -10 4 -10 6 0 11 5 11 10 0 6 -2 10 -4 10 -3 0
-8 -4 -11 -10z"/>
<path d="M4775 5813 c-21 -5 -65 -41 -65 -54 0 -4 9 -5 20 -2 11 3 17 9 14 14
-3 5 2 9 11 9 10 0 13 -5 9 -12 -4 -7 -3 -8 5 -4 6 4 9 12 6 17 -4 5 1 9 9 9
9 0 16 4 16 9 0 5 8 12 18 14 14 4 13 5 -3 5 -11 0 -29 -2 -40 -5z"/>
<path d="M2201 5803 c0 -4 4 -17 9 -28 8 -19 9 -19 9 2 1 12 -3 25 -9 28 -5 3
-10 3 -9 -2z"/>
<path d="M4697 5723 c3 -7 6 -13 8 -13 2 0 5 6 8 13 3 8 -1 14 -8 14 -7 0 -11
-6 -8 -14z"/>
<path d="M1230 5686 c0 -2 8 -10 18 -17 15 -13 16 -12 3 4 -13 16 -21 21 -21
13z"/>
<path d="M100 5376 c0 -3 9 -10 20 -16 11 -6 20 -8 20 -6 0 3 -9 10 -20 16
-11 6 -20 8 -20 6z"/>
<path d="M5837 1269 c7 -7 15 -10 18 -7 3 3 -2 9 -12 12 -14 6 -15 5 -6 -5z"/>
<path d="M5978 1153 c7 -3 16 -2 19 1 4 3 -2 6 -13 5 -11 0 -14 -3 -6 -6z"/>
<path d="M5970 1133 c8 -3 19 -11 23 -17 6 -7 7 -6 4 4 -2 8 -12 16 -23 17
-13 2 -15 1 -4 -4z"/>
</g>
</svg>
